<?xml version="1.0" encoding="utf-8"?>
<!-- Generator: Adobe Illustrator 23.0.1, SVG Export Plug-In . SVG Version: 6.00 Build 0)  -->
<svg version="1.1" id="Layer_1" xmlns="http://www.w3.org/2000/svg" xmlns:xlink="http://www.w3.org/1999/xlink" x="0px" y="0px"
	 viewBox="0 0 500 375" style="enable-background:new 0 0 500 375;" xml:space="preserve">
<style type="text/css">
	.st0{fill:#E0E0E0;}
	.st1{fill:#EBEBEB;}
	.st2{fill:#F9F9F9;}
	.st3{fill:#F4F4F4;}
	.st4{fill:none;stroke:#E0E0E0;stroke-miterlimit:10;}
	.st5{fill:#EFEFEF;}
	.st6{fill:none;stroke:#E6E6E6;stroke-width:0.5;stroke-miterlimit:10;}
	.st7{fill-rule:evenodd;clip-rule:evenodd;fill:#EFEFEF;}
	.st8{fill:none;stroke:#EBEBEB;stroke-miterlimit:10;}
	.st9{fill:none;stroke:#E6E6E6;stroke-width:1.2;stroke-miterlimit:10;}
	.st10{fill:#E6E6E6;}
	.st11{fill:none;stroke:#E0E0E0;stroke-width:0.5;stroke-miterlimit:10;}
	.st12{fill:#FFFFFF;}
	.st13{fill:none;stroke:#E6E6E6;stroke-miterlimit:10;}
	.st14{fill:none;stroke:#E0E0E0;stroke-width:0.75;stroke-miterlimit:10;}
	.st15{fill:none;stroke:#EBEBEB;stroke-width:0.5;stroke-miterlimit:10;}
	.st16{fill:none;}
	.st17{fill:none;stroke:#455A64;stroke-miterlimit:10;}
	.st18{fill-rule:evenodd;clip-rule:evenodd;fill:#FD82B3;}
	.st19{opacity:0.7;}
	.st20{clip-path:url(#SVGID_2_);fill-rule:evenodd;clip-rule:evenodd;fill:#346BEB;}
	.st21{fill-rule:evenodd;clip-rule:evenodd;fill:#346BEB;}
	.st22{opacity:0.4;}
	.st23{clip-path:url(#SVGID_4_);fill-rule:evenodd;clip-rule:evenodd;fill:#E9ECF4;}
	.st24{fill:#1A2E35;}
	.st25{fill:#FDF9F8;}
	.st26{fill:none;stroke:#1A2E35;stroke-miterlimit:10;}
	.st27{fill:#FD82B3;}
	.st28{fill:#29AB8D;}
	.st29{fill:#346BEB;}
	.st30{clip-path:url(#SVGID_6_);fill:#671CC9;}
	.st31{fill:#628FE8;}
	.st32{clip-path:url(#SVGID_8_);fill:#346BEB;}
	.st33{fill:#455A64;}
	.st34{fill-rule:evenodd;clip-rule:evenodd;fill:#F9F9F9;}
	.st35{fill:#28A067;}
	.st36{opacity:0.6;}
	.st37{clip-path:url(#SVGID_10_);}
	.st38{opacity:0.3;}
	.st39{clip-path:url(#SVGID_12_);fill:#29AB8D;}
</style>
<path class="st0" d="M434.1,64h11v54h-11V64z"/>
<path class="st1" d="M437,76.3h5.3V109H437V76.3z M437,67.7h5.3V73H437V67.7z M423.4,49.5h11.4v68.6h-11.4V49.5z"/>
<path class="st2" d="M427.9,60.6h2.3v47h-2.3V60.6z M423.4,53.7h11.4v1.7h-11.4V53.7z M423.4,56.6h11.4v1.7h-11.4V56.6z
	 M423.4,109.4h11.4v1.7h-11.4V109.4z M423.4,112.3h11.4v1.7h-11.4V112.3z"/>
<path class="st3" d="M403.6,55.4h20v62.7h-20V55.4z"/>
<path class="st0" d="M420.4,65.8c0,2.5-3.1,4.6-6.9,4.6s-6.9-2-6.9-4.6c0-2.5,3.1-4.6,6.9-4.6S420.4,63.2,420.4,65.8"/>
<path class="st4" d="M407.8,72.9h11.5v38.2h-11.5V72.9z"/>
<path class="st1" d="M391.3,70.3h12.3v47.9h-12.3V70.3z"/>
<path class="st2" d="M392.2,73.7h10.4v2.4h-10.4V73.7z M392.5,78.7h9.9V90h-9.9V78.7z"/>
<path class="st5" d="M361.5,68.9c0,0-11.5-6.9-7.8-10.4c3.7-3.4,7.2,5.9,7.2,5.9s-4-11.1,1.3-11.6s1.7,11.7,1.7,11.7s3.8-10,7-6.9
	C374,60.8,365.4,70.6,361.5,68.9"/>
<path class="st6" d="M361.5,68.9c0,0-13.2-3.9-11.3-9c1.9-5,9.6,3.4,8,3.6c-1.6,0.3-3.7-3-2-7.2c1.6-4.2,6.3-0.3,6.1,4.5
	c-0.2,4.8-3.9-0.8,1.1-4.2s6.4,4.3,4,6.6c-2.4,2.3,0.1-3.8,3.5-3.7C374.2,59.8,375.1,67.1,361.5,68.9L361.5,68.9z"/>
<path class="st0" d="M379.1,83.6c-0.4,8.5-8.1,15.1-17.4,14.7c-9.2-0.4-16.4-7.6-16-16.2c0.4-8.5,8.1-15.1,17.4-14.7
	C372.3,67.8,379.5,75.1,379.1,83.6"/>
<path class="st3" d="M350.7,73c0,0.5-0.5,1-1.1,0.9c-0.6,0-1.1-0.5-1-1c0-0.5,0.5-1,1.1-0.9C350.3,72,350.7,72.4,350.7,73
	 M354.2,83.2c0,0.8-0.8,1.4-1.7,1.4c-0.9,0-1.6-0.7-1.5-1.5c0-0.8,0.8-1.4,1.7-1.4C353.5,81.7,354.2,82.3,354.2,83.2 M364.7,77.5
	c-0.1,1.2-1.2,2.1-2.5,2.1c-1.3-0.1-2.3-1.1-2.3-2.3c0.1-1.2,1.2-2.1,2.5-2.1C363.8,75.3,364.8,76.3,364.7,77.5 M364.4,93.2
	c0,0.7-0.7,1.2-1.4,1.2c-0.8,0-1.3-0.6-1.3-1.3c0-0.7,0.7-1.2,1.4-1.2S364.4,92.5,364.4,93.2 M374.1,85.2c0,0.9-0.9,1.7-1.9,1.6
	c-1,0-1.8-0.8-1.8-1.8c0-0.9,0.9-1.7,1.9-1.6C373.4,83.5,374.2,84.3,374.1,85.2 M369.3,72.5c0,0.8-0.8,1.5-1.7,1.4
	c-0.9,0-1.6-0.8-1.6-1.6s0.8-1.5,1.7-1.4C368.7,70.9,369.4,71.6,369.3,72.5 M377.9,74.7c0,0.8-0.8,1.5-1.7,1.5
	c-0.9,0-1.6-0.8-1.6-1.6s0.8-1.5,1.7-1.5C377.2,73.2,377.9,73.9,377.9,74.7 M377.1,92.6c0,0.6-0.6,1.1-1.3,1.1
	c-0.7,0-1.2-0.6-1.2-1.2s0.6-1.1,1.3-1.1C376.6,91.4,377.1,92,377.1,92.6 M351.5,92.1c0,1-0.9,1.7-2,1.7s-1.9-0.9-1.8-1.8
	c0-1,0.9-1.7,2-1.7C350.7,90.3,351.6,91.1,351.5,92.1"/>
<path class="st3" d="M363.8,98.2l-1.5-30.8h-1c-5.5,4.3-8.5,9.2-8.9,14.7c-0.4,6.6,3.2,12.4,5.6,15.6c0.3,0.1,0.7,0.2,1.1,0.2
	c-2.4-2.9-6.4-9-6-15.8c0.3-5.2,3.2-9.9,8.5-14.1l1.5,30.2C363.3,98.3,363.6,98.2,363.8,98.2 M363.1,67.4l-0.3,0.2
	c6.5,6.6,9.5,13.2,8.9,19.6c-0.4,4.4-2.5,8-4.5,10.4c0.4-0.1,0.8-0.2,1.2-0.4c1.9-2.5,3.7-5.8,4.1-10c0.6-6.5-2.4-13.2-8.8-19.9
	C363.4,67.4,363.3,67.4,363.1,67.4"/>
<path class="st5" d="M373.8,123.3l-22.6-0.2l-1.6-13.3l-1.1-9.2h28l-1.3,10.9L373.8,123.3z"/>
<path class="st2" d="M352.7,110.8c0,0.4-0.4,0.7-0.9,0.7s-0.9-0.3-0.9-0.7c0-0.4,0.4-0.7,0.9-0.7C352.3,110,352.7,110.4,352.7,110.8
	 M359.5,107.4c0,0.4-0.4,0.7-0.9,0.7s-0.9-0.3-0.9-0.7c0-0.4,0.4-0.7,0.9-0.7S359.5,107,359.5,107.4 M373.9,107.1
	c0,0.4-0.4,0.7-0.9,0.7s-0.9-0.3-0.9-0.7c0-0.4,0.4-0.7,0.9-0.7C373.5,106.3,373.9,106.7,373.9,107.1 M367.9,110.8
	c0,0.4-0.4,0.7-0.9,0.7s-0.9-0.3-0.9-0.7c0-0.4,0.4-0.7,0.9-0.7S367.9,110.4,367.9,110.8"/>
<path class="st2" d="M375,108.9c-1.1,0.4-2.8,0.9-3.8,0.1c-0.6-0.5-1-1-1.7-1.4c-0.6-0.4-1.3-0.7-2-0.9c-1.7-0.4-3.2,0.2-4.4,1.2
	c-1,0.9-2.1,1.8-3.6,1.9c-1.6,0.2-3.2-0.5-4.5-1.2c-1.4-0.7-2.5-1.6-4.2-1.7c-0.5,0-1,0-1.5,0.1l0.1,1c0.4-0.1,0.9-0.1,1.3-0.1
	c1.7,0.1,2.8,1.2,4.2,1.8c1.3,0.6,2.9,1.1,4.4,1c1.4-0.1,2.6-0.6,3.6-1.4c0.7-0.5,1.2-1.1,2-1.5c0.7-0.3,1.4-0.4,2.2-0.3
	s1.4,0.5,2,1c0.5,0.4,1,1,1.6,1.3c1.3,0.8,3,0.5,4.3,0c0.1,0,0.2-0.1,0.4-0.1l0.1-1.1C375.4,108.7,375.2,108.8,375,108.9"/>
<path class="st5" d="M378.2,102.4h-31c-1.2,0-2.2-1-2.2-2.2v-1.5c0-1.2,1-2.2,2.2-2.2h31c1.2,0,2.2,1,2.2,2.2v1.5
	C380.4,101.5,379.4,102.4,378.2,102.4"/>
<path class="st0" d="M347,103h31.8c0.7,0,0.7-1.1,0-1.1H347C346.3,101.9,346.3,103,347,103 M294.6,117h160.5v11.6H294.6V117z"/>
<path class="st0" d="M422.9,127.6h9.4v24.1h-9.4V127.6z M320.1,127.6h9.4v24.1h-9.4V127.6z"/>
<path class="st7" d="M373.9,257.4c1.1,0.6,2.2,1.3,3.1,2.2l3.3-1.2l3.1,4.9l-2.5,2.5c0.4,1.2,0.6,2.4,0.6,3.7l3.2,1.5l-1.3,5.6h-3.5
	c-0.6,1.1-1.3,2.2-2.2,3.1l1.2,3.3l-4.9,3.1l-2.5-2.5c-1.2,0.4-2.4,0.6-3.7,0.6l-1.5,3.2l-5.6-1.3v-3.5c-1.1-0.6-2.2-1.3-3.1-2.2
	l-3.3,1.2l-3.1-4.9l2.5-2.5c-0.4-1.2-0.6-2.4-0.6-3.7l-3.2-1.5l1.3-5.6h3.5c0.6-1.1,1.3-2.2,2.2-3.1l-1.2-3.3l4.9-3.1l2.5,2.5
	c1.2-0.4,2.4-0.6,3.7-0.6l1.5-3.2l5.6,1.3V257.4L373.9,257.4z M368.9,264c-3.3-0.7-6.7,1.4-7.4,4.7c-0.8,3.3,1.4,6.7,4.7,7.4
	c3.3,0.8,6.7-1.4,7.4-4.7C374.4,268.1,372.3,264.8,368.9,264"/>
<path class="st8" d="M335.2,186.8c2.3,1.2,4.4,2.7,6.2,4.4l6.6-2.4l6.2,9.8l-5,5c0.8,2.4,1.2,4.9,1.3,7.5l6.4,3l-2.6,11.4h-7
	c-1.2,2.3-2.7,4.4-4.4,6.2l2.4,6.6l-9.8,6.2l-5-5c-2.4,0.8-4.9,1.2-7.5,1.3l-3,6.4l-11.4-2.5v-7c-2.3-1.2-4.4-2.7-6.2-4.4l-6.6,2.4
	l-6.2-9.8l5-5c-0.8-2.4-1.2-4.9-1.3-7.5l-6.4-3l2.5-11.4h7c1.2-2.3,2.7-4.4,4.4-6.2l-2.4-6.6l9.8-6.2l5,5c2.4-0.8,4.9-1.2,7.5-1.3
	l3-6.4l11.4,2.5L335.2,186.8z M325.2,200.2c-6.7-1.5-13.4,2.7-14.9,9.5c-1.5,6.7,2.7,13.4,9.5,14.9c6.7,1.5,13.4-2.7,14.9-9.5
	C336.1,208.4,331.9,201.7,325.2,200.2z"/>
<path class="st9" d="M235.4,160.4H65.1c-1.8,0-3.3-1.5-3.3-3.3V25c0-1.8,1.5-3.3,3.3-3.3h170.3c1.8,0,3.3,1.5,3.3,3.3v132.1
	C238.7,158.9,237.2,160.4,235.4,160.4L235.4,160.4z M79.4,21.6v138.9 M97.1,21.6v138.9 M114.8,21.6v138.9 M132.5,21.6v138.9
	 M150.2,21.6v138.9 M167.9,21.6v138.9 M185.7,21.6v138.9 M203.4,21.6v138.9 M221.1,21.6v138.9 M238.4,37.9H62 M238.4,55.6H62
	 M238.4,73.3H62 M238.4,91H62 M238.4,108.8H62 M238.4,126.5H62 M238.4,144.2H62"/>
<path class="st2" d="M115.4,127.9l7.3-75.1l61.7,6l-7.3,75.1L115.4,127.9z"/>
<path class="st10" d="M145.1,99.9c0,0-13.3,1.2-14.7-12c0,0-0.4-4-1.5-2.9c-1.1,1-0.9,3.1-0.9,3.1s0.5-3.5-0.7-3s-0.6,3.7-0.6,3.7
	s-0.7-4-1.5-2.7s-0.3,7.2,4.4,12.5c4.7,5.3,14.9,4.2,14.9,4.2L145.1,99.9L145.1,99.9z M157,101.4c0,0,13.3,1.6,15.1-11.5
	c0,0,0.5-4,1.6-2.9s0.8,3.1,0.8,3.1s-0.3-3.5,0.8-2.9s0.5,3.7,0.5,3.7s0.8-3.9,1.5-2.6s0.1,7.2-4.8,12.4c-4.9,5.2-15.1,3.7-15.1,3.7
	L157,101.4L157,101.4z"/>
<path class="st1" d="M163.4,132.5c0.1-1,0.3-2.8,0.4-3.8c1.7-17.6-3.5-32.4-11.7-33.2c-8.2-0.8-16.2,12.8-17.9,30.3
	c-0.1,1-0.2,2.8-0.2,3.9L163.4,132.5z"/>
<path class="st2" d="M142.7,100.8c2.4,0.3,10.4,1.4,17.6,1.7l-0.6-1.2c-6.3-0.2-13.2-1.1-16.1-1.5
	C143.2,100.1,142.9,100.4,142.7,100.8 M139.7,105.6c4,0.6,13.2,1.8,20.7,2h1.8c-0.1-0.4-0.2-0.8-0.4-1.1c-7.4,0-17.1-1.3-21.6-1.9
	C140,104.8,139.9,105.2,139.7,105.6 M137.3,111c-0.1,0.4-0.3,0.7-0.4,1.1c5.1,1.2,16.6,3.5,26.8,3.8c0-0.4-0.1-0.8-0.1-1.1
	C153.7,114.5,142.4,112.2,137.3,111 M164,119.1c-5.3,0.5-15.5,0.9-28.7-1.2c-0.1,0.4-0.2,0.7-0.2,1.1c6.6,1.1,12.4,1.5,17.3,1.6
	c4.9,0.1,8.9-0.1,11.6-0.4C164.1,119.9,164.1,119.5,164,119.1 M164,125.4c-11,0.2-23.6-2.4-29.4-3.7c-0.1,0.4-0.1,0.7-0.2,1.1
	c5.3,1.2,16.3,3.5,26.6,3.7h2.8C164,126.1,164,125.7,164,125.4 M134,127.7c6,0.7,20.3,2.2,29.6,2.5c0-0.4,0.1-0.8,0.1-1.1
	c-9.3-0.3-23.7-1.8-29.7-2.5C134.1,126.9,134,127.3,134,127.7"/>
<path class="st10" d="M147.9,78c0,0-3.8-7.7-6-7.5s-4.3,12.2-3.1,11.7S147.9,78,147.9,78 M159.8,79.4c0,0,5.5-6.6,7.6-6
	c2.1,0.7,1.4,12.9,0.3,12.1C166.6,84.8,159.8,79.4,159.8,79.4"/>
<path class="st1" d="M169.1,88c-0.8,6.8-8.6,11.4-17.5,10.4s-15.5-7.4-14.7-14.1c0.8-6.8,8.6-11.4,17.5-10.4
	C163.4,74.9,169.9,81.2,169.1,88"/>
<path class="st2" d="M166.5,87.7c-0.7,5.6-7.2,9.5-14.6,8.7c-7.4-0.9-12.9-6.1-12.2-11.8c0.7-5.6,7.2-9.5,14.6-8.7
	C161.7,76.8,167.1,82.1,166.5,87.7"/>
<path class="st0" d="M158.6,85.5c0,0.2-0.2,0.4-0.4,0.3c-0.2,0-0.4-0.2-0.3-0.4c0-0.2,0.2-0.4,0.4-0.3
	C158.5,85.1,158.7,85.3,158.6,85.5 M158.5,87c0,0.2-0.2,0.4-0.4,0.3c-0.2,0-0.4-0.2-0.3-0.4c0-0.2,0.2-0.4,0.4-0.3
	C158.4,86.6,158.6,86.8,158.5,87 M159.8,86.3c0,0.2-0.2,0.4-0.4,0.3c-0.2,0-0.4-0.2-0.3-0.4c0-0.2,0.2-0.4,0.4-0.3
	C159.6,85.9,159.8,86.1,159.8,86.3 M148.4,84.7c0,0.2,0.1,0.4,0.3,0.4s0.4-0.1,0.4-0.3c0-0.2-0.1-0.4-0.3-0.4
	C148.6,84.3,148.4,84.5,148.4,84.7 M148.1,86.1c0,0.2,0.1,0.4,0.3,0.4s0.4-0.1,0.4-0.3c0-0.2-0.1-0.4-0.3-0.4
	C148.4,85.8,148.2,85.9,148.1,86.1 M147.1,85.1c0,0.2,0.1,0.4,0.3,0.4s0.4-0.1,0.4-0.3c0-0.2-0.1-0.4-0.3-0.4S147.1,84.9,147.1,85.1
	 M151.6,87.6c-0.4,1.2-0.5,4,1.3,4.2s2.4-2.5,2.3-3.8c0-0.3-0.5-0.2-0.5,0.1c0.1,0.9-0.3,3.4-1.7,3.3c-1.5-0.2-1.2-2.7-0.9-3.6
	C152.2,87.5,151.7,87.3,151.6,87.6 M155.3,84.5c-0.1,0.6-0.8,1-1.6,0.9s-1.4-0.6-1.4-1.2c0.1-0.6,0.8-1,1.6-0.9
	C154.8,83.3,155.4,83.9,155.3,84.5"/>
<path class="st0" d="M153.5,84.8c-0.1,0.8-0.2,1.6-0.3,2.3c0,0.3,0.5,0.4,0.5,0.1c0.1-0.8,0.2-1.6,0.3-2.3
	C154,84.6,153.6,84.5,153.5,84.8 M144.6,82.7c-0.1,0.6-0.5,1-1.1,0.9s-1-0.5-0.9-1.1s0.5-1,1.1-0.9S144.7,82.2,144.6,82.7
	 M163.8,84.9c-0.1,0.6-0.5,1-1.1,0.9s-1-0.5-0.9-1.1s0.5-1,1.1-0.9C163.4,83.9,163.8,84.4,163.8,84.9"/>
<path class="st11" d="M148.7,72.6c-0.1,0.2,0.6,5.5,4.1,6.6s3.9-4,2.8-3.8c-1.2,0.2,0.8,3.7,3.3,3.6s2.6-3.5-0.1-4.9"/>
<path class="st5" d="M86.2,110l35-3l3.3,37.9l-35,3L86.2,110z"/>
<path class="st0" d="M111.9,122.5l0.7,1c0,0,0.5,3.6-0.1,7.9c0,0,0.2,1.4,2,1.8c1.8,0.5,3.2,2.3,2,4.9c-1.2,2.6-7.9,6.5-13.9,1.4
	s-4.1-15-4.1-15S109.8,119.8,111.9,122.5"/>
<path class="st12" d="M114.6,129.3c0,1-0.8,1.9-1.9,1.9c-1,0-1.9-0.8-1.9-1.8s0.8-1.9,1.9-1.9C113.8,127.4,114.6,128.3,114.6,129.3"
	/>
<path class="st11" d="M114.6,129.3c0,1-0.8,1.9-1.9,1.9c-1,0-1.9-0.8-1.9-1.8s0.8-1.9,1.9-1.9C113.8,127.4,114.6,128.3,114.6,129.3
	L114.6,129.3z"/>
<path class="st0" d="M111.9,129.5V129c0-0.1,0.1-0.1,0.1-0.2l0.1-0.1c0,0,0.1,0,0.1-0.1h0.6c0.1,0,0.1-0.1,0.1-0.1
	c0-0.1-0.1-0.1-0.1-0.1c-0.4,0-0.8,0-1.1,0.4c-0.2,0.2-0.3,0.5-0.3,0.7v0.2c0,0.1,0.1,0.1,0.1,0.1
	C111.8,129.7,111.9,129.6,111.9,129.5"/>
<path class="st12" d="M96.1,129.7c0,1,0.8,1.9,1.9,1.8c1,0,1.9-0.8,1.9-1.9c0-1-0.8-1.8-1.9-1.8S96.1,128.6,96.1,129.7"/>
<path class="st11" d="M96.1,129.7c0,1,0.8,1.9,1.9,1.8c1,0,1.9-0.8,1.9-1.9c0-1-0.8-1.8-1.9-1.8S96.1,128.6,96.1,129.7z"/>
<path class="st0" d="M99.1,129.9c0-0.2,0-0.3-0.1-0.5c-0.1-0.3-0.3-0.6-0.6-0.7c-0.2-0.1-0.5-0.1-0.7-0.1c-0.1,0-0.1,0.1-0.1,0.1
	c0,0.1,0.1,0.1,0.1,0.1h0.5c0,0,0.1,0,0.1,0.1s0.1,0.1,0.1,0.2v0.5c0,0.1,0.1,0.1,0.1,0.1C99,130,99.1,130,99.1,129.9"/>
<path class="st12" d="M105.9,132.9h-0.8c-1.1,0-1.9,1.1-1.8,2.4l0.1,1.9l4.7-0.4l-0.1-1.7C107.9,133.9,107,132.9,105.9,132.9"/>
<path class="st12" d="M111.2,129.9c0.1,2.7-2.1,5-4.8,5.1h-1.9c-2.7,0.1-5-2.1-5.1-4.8l-0.1-5.7c-0.1-2.7,2.1-5,4.8-5.1h1.9
	c2.7-0.1,5,2.1,5.1,4.8L111.2,129.9L111.2,129.9z"/>
<path class="st11" d="M111.2,129.9c0.1,2.7-2.1,5-4.8,5.1h-1.9c-2.7,0.1-5-2.1-5.1-4.8l-0.1-5.7c-0.1-2.7,2.1-5,4.8-5.1h1.9
	c2.7-0.1,5,2.1,5.1,4.8L111.2,129.9L111.2,129.9z"/>
<path class="st0" d="M105.1,126l-0.6,2.7h1.4L105.1,126z M102,126.5c0.4,0.7-0.3,1.4-1,0.9l-0.1-0.1c-0.4-0.7,0.3-1.4,1-1
	C101.9,126.4,102,126.5,102,126.5 M109.3,126.8c0,0.4-0.3,0.7-0.7,0.7c-0.4,0-0.7-0.3-0.7-0.7c0-0.4,0.3-0.7,0.7-0.7
	C109,126.1,109.3,126.4,109.3,126.8 M102.6,129.9c0,0.8-0.7,1.5-1.6,1.4c-0.8,0-1.5-0.7-1.4-1.6c0-0.8,0.7-1.5,1.6-1.4
	C102,128.4,102.6,129.1,102.6,129.9 M110.7,129.7c0,0.8-0.7,1.5-1.6,1.4c-0.8,0-1.5-0.7-1.4-1.6c0-0.8,0.7-1.5,1.6-1.4
	C110.1,128.2,110.7,128.9,110.7,129.7"/>
<path class="st12" d="M104.3,130.8c0.1,0.6,0.6,1,1.2,1s1.1-0.5,1.1-1.1C106.6,130.7,104.3,130.8,104.3,130.8z"/>
<path class="st11" d="M104.3,130.8c0.1,0.6,0.6,1,1.2,1s1.1-0.5,1.1-1.1C106.6,130.7,104.3,130.8,104.3,130.8z"/>
<path class="st2" d="M109.4,138.9l-6.8,0.3c-0.2,0-0.4-0.2-0.4-0.4l-0.1-2.4c0-0.2,0.2-0.4,0.4-0.4l1.5-0.1c0.1,0,0.1,0,0.2,0.1
	l1.5,0.9c0.1,0.1,0.3,0.1,0.4,0l1.6-1.1c0.1,0,0.1-0.1,0.2-0.1l1.4-0.1c0.2,0,0.4,0.2,0.4,0.4l0.1,2.4
	C109.8,138.7,109.6,138.9,109.4,138.9"/>
<path class="st2" d="M118.6,145.3c-1.8-3.8-5.3-6.6-9.7-7.2c-6.4-1-12.5,3.1-14.3,9.3L118.6,145.3z"/>
<path class="st10" d="M105.6,137l0.7-0.1l0.7,9.3l-0.7,0.1L105.6,137z"/>
<path class="st0" d="M107.8,113.9c0,1.7-1.4,3.2-3.3,3.2c-1.8,0-3.4-1.3-3.4-3.1c0-1.7,1.4-3.2,3.3-3.2S107.8,112.2,107.8,113.9"/>
<path class="st0" d="M102.4,120.4c0,0,1.9,3.6,4.9,3.9c2.9,0.2,3.8,0.5,4.1,1.3c0.2,0.7,0.5,1.1,0.9,0.5s1.1-4.4-0.8-6.8
	c-1.8-2.5-3.4-2.7-4.4-2.9c-1-0.2-5.1-1-8.2,2.1c-2.3,2.3-4.4,6.2-1.3,9.5c0,0,0.1,0.1,0.7,0s1,0.2,1-0.4
	C99.3,126.8,100.8,122,102.4,120.4"/>
<path class="st3" d="M99.7,52.5c0.1,0.2,0.2,0.5,0.3,0.8c0.1,0.8-0.6,1.6-1.4,1.6C97.8,55,97,54.3,97,53.5c0-0.3,0-0.5,0.2-0.8
	l-1.8,0.1c0.1,0.2,0.2,0.5,0.3,0.8c0.1,0.8-0.6,1.6-1.4,1.6c-0.8,0.1-1.6-0.6-1.6-1.4c0-0.3,0-0.5,0.2-0.8L91,53.1
	c0.1,0.2,0.2,0.5,0.3,0.8c0.1,0.8-0.6,1.6-1.4,1.6s-1.6-0.6-1.6-1.4c0-0.3,0-0.5,0.2-0.8l-1.8,0.1c0.2,0.2,0.2,0.5,0.3,0.8
	c0.1,0.8-0.6,1.6-1.4,1.6S84,55.2,84,54.4c0-0.3,0-0.5,0.2-0.8l-1.8,0.1c0.1,0.2,0.2,0.5,0.3,0.8c0.1,0.8-0.6,1.6-1.4,1.6
	c-0.8,0.1-1.6-0.6-1.6-1.4c0-0.3,0-0.5,0.2-0.8L78.1,54c0.1,0.2,0.2,0.5,0.3,0.8c0.1,0.8-0.6,1.6-1.4,1.6c-0.8,0.1-1.6-0.6-1.6-1.4
	c0-0.3,0-0.5,0.2-0.8l-1.1,0.1l2.2,31.3l26.1-1.8l-2.2-31.3L99.7,52.5L99.7,52.5z"/>
<path class="st13" d="M76.9,60.7l21.8-1.5 M76.9,64.2l21.8-1.6 M77.4,67.6L99.2,66 M77.4,71l21.8-1.5 M77.8,74.5l21.8-1.6 M78,77.9
	l21.9-1.6 M78.4,81.3l21.8-1.5"/>
<path class="st5" d="M174.6,74.8l3.4-38.4l36,3.2L210.6,78L174.6,74.8z"/>
<path class="st0" d="M192.5,55.6c0,0,1.9-2.1,1.4-5.2s-6.1-5.2-6.8-5.1c-0.7,0.1-3.3,0-3.3,0S180.7,45,180,48s0.4,6.7,0.4,7.2
	C180.6,55.8,190.3,58.9,192.5,55.6"/>
<path class="st12" d="M183.4,64.1c-0.1,0.9,0.6,1.8,1.5,1.9l0.7,0.1c0.9,0.1,1.8-0.6,1.9-1.5l0.3-3.5c0.1-0.9-0.6-1.8-1.5-1.9
	l-0.7-0.1c-0.9-0.1-1.8,0.6-1.9,1.5L183.4,64.1z"/>
<path class="st14" d="M183.4,64.1c-0.1,0.9,0.6,1.8,1.5,1.9l0.7,0.1c0.9,0.1,1.8-0.6,1.9-1.5l0.3-3.5c0.1-0.9-0.6-1.8-1.5-1.9
	l-0.7-0.1c-0.9-0.1-1.8,0.6-1.9,1.5L183.4,64.1z"/>
<path class="st12" d="M194.5,56.7c-0.1,0.9-0.8,1.6-1.8,1.5c-0.9-0.1-1.6-0.8-1.6-1.7c0.1-0.9,0.8-1.6,1.8-1.5
	C193.8,55,194.5,55.8,194.5,56.7"/>
<path class="st0" d="M192.6,58.5c-0.5,0-0.9-0.3-1.3-0.6c-0.3-0.4-0.5-0.9-0.5-1.4s0.3-1,0.6-1.3c0.4-0.3,0.9-0.5,1.4-0.5
	s1,0.3,1.3,0.6c0.3,0.4,0.5,0.9,0.5,1.4s-0.3,1-0.6,1.3C193.7,58.4,193.2,58.5,192.6,58.5C192.7,58.5,192.7,58.5,192.6,58.5
	 M192.9,55.2c-0.4,0-0.8,0.1-1,0.3c-0.3,0.2-0.4,0.6-0.5,0.9c0,0.4,0.1,0.7,0.3,1s0.6,0.4,1,0.5c0.4,0,0.7-0.1,1-0.3
	s0.4-0.6,0.5-0.9c0-0.4-0.1-0.7-0.3-1C193.6,55.4,193.3,55.3,192.9,55.2"/>
<path class="st0" d="M192,56.8v-0.3c0-0.1,0-0.1,0.1-0.1c0,0,0-0.1,0.1-0.1l0.1-0.1h0.6c0.1,0,0.1-0.1,0.1-0.1c0-0.1,0-0.1-0.1-0.1
	c-0.4-0.1-0.7,0-1,0.3c-0.2,0.2-0.2,0.4-0.3,0.6V57c0,0.1,0,0.1,0.1,0.1C192,56.9,192,56.8,192,56.8"/>
<path class="st12" d="M178.1,55.9c0.2,0.9,1,1.5,1.9,1.3s1.5-1,1.3-1.9s-1-1.5-1.9-1.3C178.6,54.1,178,55,178.1,55.9"/>
<path class="st0" d="M180.1,57.5c-0.5,0.1-1,0-1.4-0.3s-0.7-0.7-0.8-1.2s0-1,0.3-1.4s0.7-0.7,1.2-0.8s1,0,1.4,0.3s0.7,0.7,0.8,1.2
	s0,1-0.3,1.4C181.1,57.1,180.7,57.4,180.1,57.5C180.2,57.5,180.1,57.5,180.1,57.5 M178.6,54.8c-0.2,0.3-0.3,0.7-0.2,1
	c0.1,0.4,0.3,0.7,0.6,0.9s0.7,0.3,1,0.2c0.4-0.1,0.7-0.3,0.9-0.6s0.3-0.7,0.2-1c-0.1-0.4-0.3-0.7-0.6-0.9s-0.7-0.3-1-0.2
	C179.1,54.3,178.8,54.5,178.6,54.8"/>
<path class="st0" d="M180.6,55.7v-0.3c0,0,0-0.1-0.1-0.1l-0.1-0.1c0,0-0.1,0-0.1-0.1h-0.6c-0.1,0-0.1,0-0.2-0.1c0-0.1,0-0.1,0.1-0.2
	c0.3-0.1,0.7-0.1,1,0.2c0.2,0.2,0.3,0.4,0.3,0.6v0.1c0,0.1,0,0.1-0.1,0.2C180.7,55.8,180.6,55.8,180.6,55.7"/>
<path class="st12" d="M181.1,56.1c-0.2,2.5,1.7,4.7,4.1,4.9l1.5,0.1c2.5,0.2,4.7-1.7,4.9-4.2L192,52c0.2-2.5-1.7-4.7-4.1-4.9
	l-1.5-0.1c-2.5-0.2-4.7,1.7-4.9,4.2L181.1,56.1z"/>
<path class="st14" d="M181.1,56.1c-0.2,2.5,1.7,4.7,4.1,4.9l1.5,0.1c2.5,0.2,4.7-1.7,4.9-4.2L192,52c0.2-2.5-1.7-4.7-4.1-4.9
	l-1.5-0.1c-2.5-0.2-4.7,1.7-4.9,4.2L181.1,56.1z"/>
<path class="st0" d="M180.9,47.7c0.4-0.5,1.8-1.2,2.8-1.6c0.2-4.7,13-6.3,9.8,0.3c0,0,4.3-1.4,4.8,0.7c1.2,5.2-11,5.7-14,0.9
	c-0.7,0.2-1.7,0.6-1.9,1.6c-0.5,1.6-1.2,5.2-1.2,5.2s-0.1-0.9-0.4-1.7C180.5,52.4,180.3,48.4,180.9,47.7"/>
<path class="st0" d="M186.6,53l0.4,2.5l-1.2-0.2L186.6,53z M188.7,56.7c0,0.7,0.6,1.3,1.3,1.3s1.3-0.6,1.3-1.3s-0.6-1.3-1.3-1.3
	C189.3,55.3,188.7,55.9,188.7,56.7 M181.5,56c0,0.7,0.6,1.3,1.3,1.3s1.3-0.6,1.3-1.3s-0.6-1.3-1.3-1.3S181.5,55.3,181.5,56"/>
<path class="st12" d="M187.1,57.3c-0.1,0.5-0.6,0.9-1.1,0.8c-0.5,0-0.9-0.5-1-1L187.1,57.3z"/>
<path class="st11" d="M187.1,57.3c-0.1,0.5-0.6,0.9-1.1,0.8c-0.5,0-0.9-0.5-1-1L187.1,57.3z"/>
<path class="st0" d="M189.3,54.2c0,0.3,0.2,0.6,0.6,0.6c0.3,0,0.6-0.2,0.6-0.6c0-0.3-0.2-0.6-0.6-0.6
	C189.6,53.6,189.3,53.9,189.3,54.2 M182.9,53.6c0,0.3,0.2,0.6,0.6,0.6c0.3,0,0.6-0.2,0.6-0.6c0-0.3-0.2-0.6-0.6-0.6
	C183.2,53,182.9,53.3,182.9,53.6 M187.5,62.5l-3.8-0.3c-1.1-0.1-2.1,0.7-2.2,1.9l-0.1,0.9c0,0.4,0.1,0.8,0.2,1.2l7.2,0.6
	c0.2-0.3,0.4-0.7,0.4-1.1l0.1-0.9C189.4,63.6,188.6,62.6,187.5,62.5"/>
<path class="st0" d="M183.6,65.1c-3.6,0.2-6.7,2.2-8.6,5.2l-0.4,4.5l21.1,1.9C195.2,69.9,189.8,64.7,183.6,65.1"/>
<path class="st1" d="M180.3,67.2c0.2,0.3,0.3,0.6,0.5,0.8c0.1,0.1,0.2,0.1,0.3,0l0.7-0.7l0.1-0.1c0.1-0.1,0.1-0.2,0-0.3
	c-0.1-0.1-0.2-0.1-0.3,0l-0.7,0.7l-0.1,0.1h0.3c-0.2-0.3-0.3-0.6-0.5-0.8c-0.1-0.1-0.2-0.1-0.3-0.1C180.3,67,180.2,67.1,180.3,67.2
	 M182.8,67.6c0.2,0.3,0.3,0.6,0.5,0.8c0.1,0.1,0.2,0.1,0.3,0l0.7-0.7l0.1-0.1c0.1-0.1,0.1-0.2,0-0.3c-0.1-0.1-0.2-0.1-0.3,0
	l-0.7,0.7l-0.1,0.1h0.3c-0.2-0.3-0.3-0.6-0.5-0.8c-0.1-0.1-0.2-0.1-0.3-0.1C182.8,67.4,182.7,67.5,182.8,67.6 M185.3,67.8
	c0.2,0.3,0.3,0.6,0.5,0.8c0.1,0.1,0.2,0.1,0.3,0l0.7-0.7l0.1-0.1c0.1-0.1,0.1-0.2,0-0.3c-0.1-0.1-0.2-0.1-0.3,0l-0.7,0.7l-0.1,0.1
	h0.3c-0.2-0.3-0.3-0.6-0.5-0.8c-0.1-0.1-0.2-0.1-0.3-0.1V67.8 M188.1,68.1c0.2,0.3,0.3,0.6,0.5,0.8c0.1,0.1,0.2,0.1,0.3,0l0.7-0.7
	l0.1-0.1c0.1-0.1,0.1-0.2,0-0.3c-0.1-0.1-0.2-0.1-0.3,0l-0.7,0.7l-0.1,0.1h0.3c-0.2-0.3-0.3-0.6-0.5-0.8c-0.1-0.1-0.2-0.1-0.3-0.1
	V68.1 M190.1,70.1c0.2,0.3,0.3,0.6,0.5,0.8c0.1,0.1,0.2,0.1,0.3,0l0.7-0.7l0.1-0.1c0.1-0.1,0.1-0.2,0-0.3c-0.1-0.1-0.2-0.1-0.3,0
	l-0.7,0.7l-0.1,0.1h0.3c-0.2-0.3-0.3-0.6-0.5-0.8c-0.1-0.1-0.2-0.1-0.3-0.1V70.1 M186.7,70.1c0.2,0.3,0.3,0.6,0.5,0.8
	c0.1,0.1,0.2,0.1,0.3,0l0.7-0.7l0.1-0.1c0.1-0.1,0.1-0.2,0-0.3c-0.1-0.1-0.2-0.1-0.3,0l-0.7,0.7l-0.1,0.1h0.3
	c-0.2-0.3-0.3-0.6-0.5-0.8c-0.1-0.1-0.2-0.1-0.3-0.1C186.6,69.9,186.6,70,186.7,70.1 M183.6,70c0.2,0.3,0.3,0.6,0.5,0.8
	c0.1,0.1,0.2,0.1,0.3,0l0.7-0.7l0.1-0.1c0.1-0.1,0.1-0.2,0-0.3c-0.1-0.1-0.2-0.1-0.3,0l-0.7,0.7l-0.1,0.1h0.3
	c-0.2-0.3-0.3-0.6-0.5-0.8c-0.1-0.1-0.2-0.1-0.3-0.1V70 M180.6,69.8c0.2,0.3,0.3,0.6,0.5,0.8c0.1,0.1,0.2,0.1,0.3,0l0.7-0.7l0.1-0.1
	c0.1-0.1,0.1-0.2,0-0.3c-0.1-0.1-0.2-0.1-0.3,0l-0.7,0.7l-0.1,0.1h0.3c-0.2-0.3-0.3-0.6-0.5-0.8c-0.1-0.1-0.2-0.1-0.3-0.1V69.8
	 M177.4,69.1c0.2,0.3,0.3,0.6,0.5,0.8c0.1,0.1,0.2,0.1,0.3,0l0.7-0.7l0.1-0.1c0.1-0.1,0.1-0.2,0-0.3c-0.1-0.1-0.2-0.1-0.3,0
	l-0.7,0.7l-0.1,0.1h0.3c-0.2-0.3-0.3-0.6-0.5-0.8c-0.1-0.1-0.2-0.1-0.3-0.1C177.3,68.9,177.3,69,177.4,69.1 M178.4,71.5
	c0.2,0.3,0.3,0.6,0.5,0.8c0.1,0.1,0.2,0.1,0.3,0l0.7-0.7l0.1-0.1c0.1-0.1,0.1-0.2,0-0.3c-0.1-0.1-0.2-0.1-0.3,0l-0.7,0.7l-0.1,0.1
	h0.3c-0.2-0.3-0.3-0.6-0.5-0.8c-0.1-0.1-0.2-0.1-0.3-0.1C178.4,71.2,178.3,71.4,178.4,71.5 M181.8,72c0.2,0.3,0.3,0.6,0.5,0.8
	c0.1,0.1,0.2,0.1,0.3,0l0.7-0.7l0.1-0.1c0.1-0.1,0.1-0.2,0-0.3c-0.1-0.1-0.2-0.1-0.3,0l-0.7,0.7l-0.1,0.1h0.3
	c-0.2-0.3-0.3-0.6-0.5-0.8c-0.1-0.1-0.2-0.1-0.3-0.1V72 M175.1,71.2c0.2,0.3,0.3,0.6,0.5,0.8c0.1,0.1,0.2,0.1,0.3,0l0.7-0.7l0.1-0.1
	c0.1-0.1,0.1-0.2,0-0.3c-0.1-0.1-0.2-0.1-0.3,0l-0.7,0.7l-0.1,0.1h0.3c-0.2-0.3-0.3-0.6-0.5-0.8c-0.1-0.1-0.2-0.1-0.3-0.1
	C175.1,71,175,71.1,175.1,71.2 M185.2,72.5c0.2,0.3,0.3,0.6,0.5,0.8c0.1,0.1,0.2,0.1,0.3,0l0.7-0.7l0.1-0.1c0.1-0.1,0.1-0.2,0-0.3
	c-0.1-0.1-0.2-0.1-0.3,0l-0.7,0.7l-0.1,0.1h0.3c-0.2-0.3-0.3-0.6-0.5-0.8c-0.1-0.1-0.2-0.1-0.3-0.1V72.5 M188.4,72.7
	c0.2,0.3,0.3,0.6,0.5,0.8c0.1,0.1,0.2,0.1,0.3,0l0.7-0.7l0.1-0.1c0.1-0.1,0.1-0.2,0-0.3c-0.1-0.1-0.2-0.1-0.3,0l-0.7,0.7l-0.1,0.1
	h0.3c-0.2-0.3-0.3-0.6-0.5-0.8c-0.1-0.1-0.2-0.1-0.3-0.1V72.7 M191.9,73c0.2,0.3,0.3,0.6,0.5,0.8c0.1,0.1,0.2,0.1,0.3,0l0.7-0.7
	l0.1-0.1c0.1-0.1,0.1-0.2,0-0.3c-0.1-0.1-0.2-0.1-0.3,0l-0.7,0.7l-0.1,0.1h0.3c-0.2-0.3-0.3-0.6-0.5-0.8c-0.1-0.1-0.2-0.1-0.3-0.1
	C191.9,72.7,191.8,72.9,191.9,73 M190,74.7c0.2,0.3,0.3,0.6,0.5,0.8c0.1,0.1,0.2,0.1,0.3,0l0.7-0.7l0.1-0.1c0.1-0.1,0.1-0.2,0-0.3
	c-0.1-0.1-0.2-0.1-0.3,0l-0.7,0.7l-0.1,0.1h0.3c-0.2-0.3-0.3-0.6-0.5-0.8c-0.1-0.1-0.2-0.1-0.3-0.1C190,74.5,189.9,74.6,190,74.7
	 M186.5,74.6c0.2,0.3,0.3,0.6,0.5,0.8c0.1,0.1,0.2,0.1,0.3,0l0.7-0.7l0.1-0.1c0.1-0.1,0.1-0.2,0-0.3c-0.1-0.1-0.2-0.1-0.3,0
	l-0.7,0.7l-0.1,0.1h0.3c-0.2-0.3-0.3-0.6-0.5-0.8c-0.1-0.1-0.2-0.1-0.3-0.1C186.4,74.4,186.4,74.5,186.5,74.6 M183,74.4
	c0.2,0.3,0.3,0.6,0.5,0.8c0.1,0.1,0.2,0.1,0.3,0l0.7-0.7l0.1-0.1c0.1-0.1,0.1-0.2,0-0.3c-0.1-0.1-0.2-0.1-0.3,0l-0.7,0.7l-0.1,0.1
	h0.3c-0.2-0.3-0.3-0.6-0.5-0.8c-0.1-0.1-0.2-0.1-0.3-0.1C182.9,74.2,182.9,74.3,183,74.4 M179.8,73.9c0.2,0.3,0.3,0.6,0.5,0.8
	c0.1,0.1,0.2,0.1,0.3,0l0.7-0.7l0.1-0.1c0.1-0.1,0.1-0.2,0-0.3c-0.1-0.1-0.2-0.1-0.3,0l-0.7,0.7l-0.1,0.1h0.3
	c-0.2-0.3-0.3-0.6-0.5-0.8c-0.1-0.1-0.2-0.1-0.3-0.1C179.8,73.7,179.7,73.8,179.8,73.9 M176.3,73.7c0.2,0.3,0.3,0.6,0.5,0.8
	c0.1,0.1,0.2,0.1,0.3,0l0.7-0.7l0.1-0.1c0.1-0.1,0.1-0.2,0-0.3c-0.1-0.1-0.2-0.1-0.3,0l-0.7,0.7l-0.1,0.1h0.3
	c-0.2-0.3-0.3-0.6-0.5-0.8c-0.1-0.1-0.2-0.1-0.3-0.1V73.7"/>
<path class="st0" d="M206.6,56.9l0.4,0.8c0,0-0.1,2.9-1.3,6.1c0,0,0,1.1,1.3,1.7c1.3,0.7,2.1,2.2,0.8,4.1s-7.1,3.9-11-0.9
	c-3.9-4.9-1-12.2-1-12.2S205.3,54.4,206.6,56.9"/>
<path class="st12" d="M207.7,62.5c-0.1,0.8-0.9,1.3-1.7,1.2s-1.3-0.9-1.2-1.7s0.9-1.3,1.7-1.2S207.8,61.7,207.7,62.5"/>
<path class="st11" d="M207.7,62.5c-0.1,0.8-0.9,1.3-1.7,1.2s-1.3-0.9-1.2-1.7s0.9-1.3,1.7-1.2S207.8,61.7,207.7,62.5z"/>
<path class="st0" d="M205.5,62.3C205.5,62.3,205.6,62.2,205.5,62.3C205.5,62.2,205.5,62.2,205.5,62.3V62l0.1-0.1h0.4
	c0.1,0,0.2,0,0.3,0.1c0.1,0,0.1,0,0.1-0.1s0-0.1-0.1-0.1c-0.3-0.1-0.6-0.1-0.9,0.1c-0.2,0.1-0.3,0.3-0.3,0.5v0.1
	c0,0.1,0,0.1,0.1,0.1C205.5,62.4,205.5,62.4,205.5,62.3"/>
<path class="st12" d="M193.2,60.1c-0.1,0.8,0.4,1.6,1.2,1.7c0.8,0.1,1.6-0.4,1.7-1.2c0.1-0.8-0.4-1.6-1.2-1.7
	C194.2,58.7,193.4,59.3,193.2,60.1"/>
<path class="st11" d="M193.2,60.1c-0.1,0.8,0.4,1.6,1.2,1.7c0.8,0.1,1.6-0.4,1.7-1.2c0.1-0.8-0.4-1.6-1.2-1.7
	C194.2,58.7,193.4,59.3,193.2,60.1z"/>
<path class="st0" d="M195.6,60.7v-0.4c0-0.2-0.1-0.5-0.3-0.6s-0.4-0.2-0.6-0.2c-0.1,0-0.1,0-0.1,0.1s0,0.1,0.1,0.1h0.5l0.1,0.1
	c0,0,0,0.1,0.1,0.1v0.4c0,0.1,0,0.1,0.1,0.1C195.5,60.8,195.5,60.7,195.6,60.7"/>
<path class="st12" d="M200.4,64l-0.6-0.1c-0.8-0.1-1.6,0.5-1.7,1.3l-0.3,2.3l3.7,0.3l0.3-2.1C201.8,64.9,201.2,64.2,200.4,64"/>
<path class="st12" d="M204.9,62.5c-0.3,2.1-2.4,3.6-4.5,3.2l-1.5-0.2c-2.1-0.3-3.6-2.4-3.2-4.5l0.7-4.5c0.3-2.1,2.4-3.6,4.5-3.2
	l1.5,0.2c2.1,0.3,3.6,2.4,3.2,4.5L204.9,62.5z"/>
<path class="st11" d="M204.9,62.5c-0.3,2.1-2.4,3.6-4.5,3.2l-1.5-0.2c-2.1-0.3-3.6-2.4-3.2-4.5l0.7-4.5c0.3-2.1,2.4-3.6,4.5-3.2
	l1.5,0.2c2.1,0.3,3.6,2.4,3.2,4.5L204.9,62.5z"/>
<path class="st0" d="M200.8,58.6l-0.9,2l1.1,0.2L200.8,58.6z M198.3,58.5c0.2,0.6-0.5,1-0.9,0.6l-0.1-0.1c-0.2-0.6,0.4-1,0.9-0.6
	C198.2,58.4,198.3,58.4,198.3,58.5 M203.9,59.7c-0.1,0.3-0.3,0.5-0.6,0.4s-0.5-0.3-0.4-0.6s0.3-0.5,0.6-0.4S204,59.4,203.9,59.7
	 M198.2,61.2c-0.2,0.6-0.8,1-1.4,0.9c-0.6-0.2-1-0.8-0.9-1.4s0.8-1,1.4-0.9C198,60,198.4,60.6,198.2,61.2 M204.6,62.3
	c-0.2,0.6-0.8,1-1.4,0.9c-0.6-0.2-1-0.8-0.9-1.4c0.2-0.6,0.8-1,1.4-0.9C204.3,61,204.7,61.6,204.6,62.3"/>
<path class="st12" d="M199.5,62.1c0,0.5,0.3,0.9,0.8,0.9c0.5,0.1,0.9-0.2,1-0.7L199.5,62.1z"/>
<path class="st11" d="M199.5,62.1c0,0.5,0.3,0.9,0.8,0.9c0.5,0.1,0.9-0.2,1-0.7L199.5,62.1z"/>
<path class="st0" d="M204.7,49.6c-0.2,1.4-1.6,2.3-3,2c-1.4-0.2-2.4-1.5-2.2-2.9s1.6-2.3,3-2C203.9,46.9,204.9,48.2,204.7,49.6"/>
<path class="st0" d="M199.5,53.8c0,0,1,3.1,3.2,3.7c2.2,0.6,2.9,1,3,1.6s0.2,0.9,0.7,0.5c0.4-0.4,1.5-3.2,0.4-5.4s-2.3-2.6-3-2.9
	c-0.7-0.3-3.8-1.5-6.7,0.4c-2.1,1.4-4.3,4.2-2.4,7.2c0,0,0.1,0.1,0.5,0.1c0.5,0,0.7,0.3,0.8-0.2S198.1,54.8,199.5,53.8"/>
<path class="st1" d="M201.5,68.9l-4-0.6c-0.5-0.1-0.9-0.6-0.8-1.1c0.1-0.5,0.6-0.9,1.1-0.8l4,0.6c0.5,0.1,0.9,0.6,0.8,1.1
	C202.5,68.6,202,69,201.5,68.9"/>
<path class="st3" d="M197.5,67.6c-4.4,0.3-7.8,3.9-8.4,8.5l18.1,1.6V77C206.8,71.5,202.5,67.3,197.5,67.6"/>
<path class="st1" d="M203.3,72.5c0,0.6-0.4,1.1-1,1.1s-1.1-0.4-1.1-1s0.4-1.1,1-1.1S203.3,71.9,203.3,72.5"/>
<path class="st0" d="M199.9,40.2h-6.8c-0.6,0-1-0.5-1-1v-2.5c0-0.6,0.5-1,1-1h6.8c0.6,0,1,0.5,1,1v2.5
	C200.9,39.8,200.5,40.2,199.9,40.2"/>
<path class="st15" d="M198,39.7c0,0-1-4.6-1.1-4.9c-0.1-0.4,2.4-2.7,1.1-4.1c-0.5-0.6-1.1-0.7-1.6-0.7s-1,0.1-1.6,0.7
	c-1.3,1.4,1.3,3.8,1.1,4.1c-0.1,0.4-1.1,5-1.1,5"/>
<path class="st0" d="M160.3,58.2h-6.8c-0.6,0-1-0.5-1-1v-2.5c0-0.6,0.5-1,1-1h6.8c0.6,0,1,0.5,1,1v2.5
	C161.3,57.7,160.9,58.2,160.3,58.2"/>
<path class="st15" d="M158.4,57.7c0,0-1-4.6-1.1-4.9c-0.1-0.4,2.4-2.7,1.1-4.1c-0.5-0.6-1.1-0.7-1.6-0.7s-1,0.1-1.6,0.7
	c-1.3,1.4,1.3,3.8,1.1,4.1c-0.1,0.4-1.1,5-1.1,5"/>
<path class="st0" d="M107.9,109.8h-6.8c-0.6,0-1-0.5-1-1v-2.5c0-0.6,0.5-1,1-1h6.8c0.6,0,1,0.5,1,1v2.5
	C108.9,109.3,108.5,109.8,107.9,109.8"/>
<path class="st15" d="M106,109.3c0,0-1-4.6-1.1-4.9c-0.1-0.4,2.4-2.7,1.1-4.1c-0.5-0.6-1.1-0.7-1.6-0.7s-1,0.1-1.6,0.7
	c-1.3,1.4,1.3,3.8,1.1,4.1c-0.1,0.4-1.1,5-1.1,5"/>
<path class="st0" d="M91.2,57.9h-6.8c-0.6,0-1-0.5-1-1v-2.5c0-0.6,0.5-1,1-1h6.8c0.6,0,1,0.5,1,1v2.5C92.3,57.4,91.8,57.9,91.2,57.9
	"/>
<path class="st15" d="M89.3,57.4c0,0-1-4.6-1.1-4.9c-0.1-0.4,2.4-2.7,1.1-4.1c-0.5-0.6-1.1-0.7-1.6-0.7s-1,0.1-1.6,0.7
	c-1.3,1.4,1.3,3.8,1.1,4.1c-0.1,0.4-1.1,5-1.1,5"/>
<path class="st16" d="M22.5-40h455v455h-455V-40z"/>
<path class="st16" d="M22.5-40h455v455h-455V-40z"/>
<path class="st17" d="M170.3,217.4c1.3,0.7,2.6,1.6,3.7,2.6l3.9-1.4l3.7,5.8l-2.9,2.9c0.4,1.4,0.7,2.9,0.8,4.4l3.7,1.8l-1.5,6.7
	h-4.1c-0.7,1.3-1.6,2.6-2.6,3.7l1.4,3.9l-5.8,3.7l-2.9-2.9c-1.4,0.4-2.9,0.7-4.4,0.8l-1.8,3.7l-6.7-1.5v-4.1
	c-1.3-0.7-2.6-1.6-3.7-2.6l-3.9,1.4l-3.7-5.8l2.9-2.9c-0.4-1.4-0.7-2.9-0.8-4.4l-3.7-1.8l1.5-6.7h4.1c0.7-1.3,1.6-2.6,2.6-3.7
	l-1.4-3.9l5.8-3.7l2.9,2.9c1.4-0.4,2.9-0.7,4.4-0.8l1.8-3.7l6.7,1.5V217.4z M164.4,225.3c-4-0.9-7.9,1.6-8.8,5.6
	c-0.9,4,1.6,7.9,5.6,8.8c4,0.9,7.9-1.6,8.8-5.6C170.8,230.1,168.3,226.2,164.4,225.3z"/>
<path class="st18" d="M188.4,149.1c1.6,0.9,3.1,1.9,4.5,3.2l4.8-1.7l4.5,7.1l-3.6,3.6c0.5,1.7,0.9,3.5,0.9,5.4l4.6,2.2l-1.8,8.2
	h-5.1c-0.9,1.6-1.9,3.1-3.2,4.5l1.7,4.8l-7.1,4.5l-3.6-3.6c-1.7,0.5-3.5,0.9-5.4,0.9l-2.2,4.6l-8.2-1.8v-5.1
	c-1.6-0.9-3.1-1.9-4.5-3.2l-4.8,1.7l-4.5-7.1l3.6-3.6c-0.5-1.7-0.9-3.5-0.9-5.4l-4.6-2.2l1.8-8.2h5.1c0.9-1.6,1.9-3.1,3.2-4.5
	l-1.7-4.8l7.1-4.5l3.6,3.6c1.7-0.5,3.5-0.9,5.4-0.9l2.2-4.6l8.2,1.8V149.1z M181.1,158.7c-4.9-1.1-9.7,2-10.8,6.8
	c-1.1,4.9,2,9.7,6.8,10.8c4.9,1.1,9.7-2,10.8-6.8C189,164.6,186,159.8,181.1,158.7"/>
<g class="st19">
	<g>
		<defs>
			<rect id="SVGID_1_" x="153.5" y="142.2" width="50.6" height="50.6"/>
		</defs>
		<clipPath id="SVGID_2_">
			<use xlink:href="#SVGID_1_"  style="overflow:visible;"/>
		</clipPath>
		<path class="st20" d="M188.4,149.1c1.6,0.9,3.1,1.9,4.5,3.2l4.8-1.7l4.5,7.1l-3.6,3.6c0.5,1.7,0.9,3.5,0.9,5.4l4.6,2.2l-1.8,8.2
			h-5.1c-0.9,1.6-1.9,3.1-3.2,4.5l1.7,4.8l-7.1,4.5l-3.6-3.6c-1.7,0.5-3.5,0.9-5.4,0.9l-2.2,4.6l-8.2-1.8v-5.1
			c-1.6-0.9-3.1-1.9-4.5-3.2l-4.8,1.7l-4.5-7.1l3.6-3.6c-0.5-1.7-0.9-3.5-0.9-5.4l-4.6-2.2l1.8-8.2h5.1c0.9-1.6,1.9-3.1,3.2-4.5
			l-1.7-4.8l7.1-4.5l3.6,3.6c1.7-0.5,3.5-0.9,5.4-0.9l2.2-4.6l8.2,1.8V149.1z M181.1,158.7c-4.9-1.1-9.7,2-10.8,6.8
			c-1.1,4.9,2,9.7,6.8,10.8c4.9,1.1,9.7-2,10.8-6.8C189,164.6,186,159.8,181.1,158.7"/>
	</g>
</g>
<path class="st21" d="M124.1,186.4c1.1,0.6,2,1.2,2.9,2l3.1-1.1l2.9,4.6l-2.3,2.3c0.4,1.1,0.6,2.3,0.6,3.5l3,1.4l-1.2,5.3h-3.3
	c-0.6,1.1-1.2,2-2,2.9l1.1,3.1l-4.6,2.9L122,211c-1.1,0.4-2.3,0.6-3.5,0.6l-1.4,3l-5.3-1.2v-3.3c-1.1-0.6-2-1.2-2.9-2l-3.1,1.1
	l-2.9-4.6l2.3-2.3c-0.4-1.1-0.6-2.3-0.6-3.5l-3-1.4l1.2-5.3h3.3c0.6-1.1,1.2-2,2-2.9l-1.1-3.1l4.6-2.9l2.3,2.3
	c1.1-0.4,2.3-0.6,3.5-0.6l1.4-3l5.3,1.2L124.1,186.4L124.1,186.4z M119.5,192.6c-3.1-0.7-6.2,1.3-6.9,4.4c-0.7,3.1,1.3,6.2,4.4,6.9
	s6.2-1.3,6.9-4.4C124.6,196.4,122.6,193.3,119.5,192.6"/>
<g class="st22">
	<g>
		<defs>
			<rect id="SVGID_3_" x="101.7" y="182" width="32.5" height="32.5"/>
		</defs>
		<clipPath id="SVGID_4_">
			<use xlink:href="#SVGID_3_"  style="overflow:visible;"/>
		</clipPath>
		<path class="st23" d="M124.1,186c1.1,0.6,2,1.2,2.9,2l3.1-1.1l2.9,4.6l-2.3,2.3c0.4,1.1,0.6,2.3,0.6,3.5l3,1.4l-1.2,5.3h-3.3
			c-0.6,1.1-1.2,2-2,2.9l1.1,3.1l-4.6,2.9l-2.3-2.3c-1.1,0.4-2.3,0.6-3.5,0.6l-1.4,3l-5.3-1.2v-3.3c-1.1-0.6-2-1.2-2.9-2l-3.1,1.1
			l-2.9-4.6l2.3-2.3c-0.4-1.1-0.6-2.3-0.6-3.5l-3-1.4l1.2-5.3h3.3c0.6-1.1,1.2-2,2-2.9l-1.1-3.1l4.6-2.9l2.3,2.3
			c1.1-0.4,2.3-0.6,3.5-0.6l1.4-3l5.3,1.2L124.1,186L124.1,186z M119.5,192.2c-3.1-0.7-6.2,1.3-6.9,4.4c-0.7,3.1,1.3,6.2,4.4,6.9
			s6.2-1.3,6.9-4.4C124.6,196,122.6,192.9,119.5,192.2"/>
	</g>
</g>
<path class="st16" d="M22.5-40h455v455h-455V-40z"/>
<path class="st24" d="M273.6,125.4l2.7,3.9c0,0,1.8,14.7-1.3,32c0,0,0.6,5.5,7.9,7.6c7.3,2.2,12.6,9.5,7.5,19.9
	c-5.1,10.5-32.4,25.7-56.2,4.3c-23.9-21.3-15-60.8-15-60.8S265.1,114,273.6,125.4"/>
<path class="st25" d="M283.8,152.9c-0.1,4.1-3.5,7.4-7.7,7.3c-4.2-0.1-7.5-3.5-7.4-7.6s3.5-7.4,7.7-7.3
	C280.6,145.4,283.9,148.8,283.8,152.9"/>
<path class="st26" d="M283.8,152.9c-0.1,4.1-3.5,7.4-7.7,7.3c-4.2-0.1-7.5-3.5-7.4-7.6s3.5-7.4,7.7-7.3
	C280.6,145.4,283.9,148.8,283.8,152.9z"/>
<path class="st24" d="M272.7,153.6v-0.7c0-0.2,0,0.1,0,0v-0.2c0-0.2,0.1-0.4,0.1-0.6c0-0.1,0.1-0.2,0.1-0.3s0-0.1,0.1-0.2
	c0,0,0-0.1,0,0c0,0,0-0.1,0.1-0.1c0.1-0.2,0.2-0.4,0.4-0.7l0.1-0.1l0.1-0.1l0.3-0.3c0.1-0.1-0.1,0,0.1-0.1c0.1,0,0.1-0.1,0.2-0.1
	c0.1-0.1,0.3-0.2,0.4-0.2c-0.1,0,0,0,0,0c0.1,0,0.1,0,0.2-0.1c0.1,0,0.2-0.1,0.3-0.1c0.1,0,0.2,0,0.3-0.1h0.3c0.5-0.1,1,0,1.5,0
	c0.3,0,0.6-0.3,0.6-0.6s-0.3-0.5-0.6-0.6c-1.6-0.2-3.3,0.1-4.3,1.3c-0.7,0.8-1.1,1.9-1.2,3v0.7c0,0.3,0.3,0.6,0.6,0.6
	C272.5,154.2,272.7,154,272.7,153.6"/>
<path class="st25" d="M208.9,152.6c-0.1,4.1,3.2,7.5,7.4,7.6s7.6-3.2,7.7-7.3c0.1-4.1-3.2-7.5-7.4-7.6S209,148.5,208.9,152.6"/>
<path class="st26" d="M208.9,152.6c-0.1,4.1,3.2,7.5,7.4,7.6s7.6-3.2,7.7-7.3c0.1-4.1-3.2-7.5-7.4-7.6S209,148.5,208.9,152.6z"/>
<path class="st24" d="M221.1,153.8c0.1-0.6,0-1.3-0.2-1.9c-0.3-1.2-1.1-2.3-2.2-2.8c-0.9-0.4-2-0.5-3-0.5c-0.3,0-0.6,0.2-0.6,0.6
	c0,0.3,0.3,0.6,0.6,0.6h1.6c0.1,0,0.2,0,0.3,0.1c0.2,0,0.4,0.1,0.5,0.2c-0.1-0.1,0.1,0,0.1,0.1c0.1,0,0.1,0.1,0.2,0.1
	s0.1,0.1,0.2,0.1c0,0,0.1,0,0.1,0.1h0.1c-0.1,0-0.1-0.1,0,0l0.3,0.3l0.1,0.1c0,0,0,0.1,0.1,0.1c0.1,0.1-0.1-0.1,0,0
	c0.2,0.2,0.3,0.4,0.4,0.7v0.1c0,0.1-0.1-0.1,0,0c0,0.1,0,0.1,0.1,0.2c0,0.1,0.1,0.2,0.1,0.4c0.1,0.2,0.1,0.4,0.1,0.6
	c0,0.2,0-0.1,0,0v1.1c0,0.3,0.3,0.6,0.6,0.6C220.8,154.4,221.1,154.1,221.1,153.8"/>
<path class="st25" d="M256.4,190.3c0.1,4.3-3.3,7.8-7.6,7.9l-3.3,0.1c-4.3,0.1-7.8-3.3-7.9-7.6l-0.3-16c-0.1-4.3,3.3-7.8,7.6-7.9
	l3.3-0.1c4.3-0.1,7.8,3.3,7.9,7.6L256.4,190.3z"/>
<path class="st26" d="M256.4,190.3c0.1,4.3-3.3,7.8-7.6,7.9l-3.3,0.1c-4.3,0.1-7.8-3.3-7.9-7.6l-0.3-16c-0.1-4.3,3.3-7.8,7.6-7.9
	l3.3-0.1c4.3-0.1,7.8,3.3,7.9,7.6L256.4,190.3z"/>
<path class="st25" d="M269.7,155.2c0,11-9,20-20,20h-7.6c-11,0-20-9-20-20v-23c0-11,9-20,20-20h7.6c11,0,20,9,20,20V155.2z"/>
<path class="st26" d="M269.7,155.2c0,11-9,20-20,20h-7.6c-11,0-20-9-20-20v-23c0-11,9-20,20-20h7.6c11,0,20,9,20,20V155.2z"/>
<path class="st27" d="M245.7,138.8l-2.6,10.9l5.7-0.1L245.7,138.8z"/>
<path class="st24" d="M233.1,140.5c1.5,2.8-1.5,5.5-4.2,3.7c-0.2-0.1-0.3-0.3-0.4-0.5c-1.7-2.8,1.2-5.6,3.9-3.9
	C232.7,140,232.9,140.2,233.1,140.5 M262.4,142.2c0,1.5-1.3,2.7-2.8,2.7s-2.7-1.3-2.7-2.8s1.3-2.7,2.8-2.7
	C261.3,139.4,262.5,140.6,262.4,142.2"/>
<path class="st27" d="M235,154.3c-0.3,3.3-3.1,5.8-6.4,5.5c-3.3-0.3-5.8-3.1-5.5-6.4c0.3-3.3,3.1-5.8,6.4-5.5
	C232.8,148.2,235.3,151,235,154.3 M267.8,154.3c-0.3,3.3-3.1,5.8-6.4,5.5s-5.8-3.1-5.5-6.4c0.3-3.3,3.1-5.8,6.4-5.5
	S268.1,151,267.8,154.3"/>
<path class="st25" d="M242.1,157.9c0.3,2.3,2.3,4.1,4.7,4.1s4.4-1.8,4.7-4.1H242.1z"/>
<path class="st26" d="M242.1,157.9c0.3,2.3,2.3,4.1,4.7,4.1s4.4-1.8,4.7-4.1H242.1z"/>
<path class="st24" d="M259.6,94.2c0,9.8-8.4,17.7-18.7,17.7s-18.7-7.9-18.7-17.7s8.4-17.7,18.7-17.7S259.6,84.4,259.6,94.2"/>
<path class="st24" d="M235.3,115.8c0,0,7.5,14.8,19.2,16c11.7,1.2,15.5,2.5,16.3,5.5s1.9,4.4,3.7,2.2c1.8-2.2,4.8-17.5-2.4-27.7
	c-7.2-10.1-13.5-11-17.5-12.1s-20.5-4.6-33.3,7.5c-9.5,9-18.2,24.5-6.1,38c0,0,0.5,0.3,2.8,0s4,0.8,4-1.6
	C222.1,141.4,228.8,122,235.3,115.8"/>
<path class="st28" d="M165.3,344.3h190.1c-5.2-83.3-51.8-148.6-108.6-148.6c-19.4,0-37.6,7.6-53.4,21c-9.1,6.5-24.7,20.4-41.5,47.4
	c-26.3,42.3-28.1,42.4-29.8,54.6c-1.8,12.2,4.5,21.6,7.9,24.5c0.6,0.5,3.7,0.8,8.3,1v0.1h2.3C147.4,344.5,156.6,344.4,165.3,344.3"
	/>
<path class="st29" d="M261.1,195c0,2.5-2,4.6-4.6,4.6h-20c-2.5,0-4.5-2-4.5-4.6v-6c0-2.5,2-4.5,4.5-4.5h20c2.5,0,4.6,2,4.6,4.5V195z
	"/>
<g class="st22">
	<g>
		<defs>
			<rect id="SVGID_5_" x="231.9" y="184.4" width="29.1" height="15.1"/>
		</defs>
		<clipPath id="SVGID_6_">
			<use xlink:href="#SVGID_5_"  style="overflow:visible;"/>
		</clipPath>
		<path class="st30" d="M261.1,195c0,2.5-2,4.6-4.6,4.6h-20c-2.5,0-4.5-2-4.5-4.6v-6c0-2.5,2-4.5,4.5-4.5h20c2.5,0,4.6,2,4.6,4.5
			V195z"/>
	</g>
</g>
<path class="st31" d="M238.5,184.4h0.9v15.1h-0.9V184.4z M234.7,199.2l0.9,0.3v-15c-0.3,0.1-0.6,0.1-0.9,0.3V199.2z M242.2,184.4
	h0.9v15.1h-0.9V184.4z M245.9,184.4h0.9v15.1h-0.9V184.4z M249.6,184.4h0.9v15.1h-0.9V184.4z M253.4,184.4h0.9v15.1h-0.9V184.4z
	 M257.1,199.5c0.3,0,0.6-0.1,0.9-0.2v-14.6c-0.3-0.1-0.6-0.2-0.9-0.2V199.5z"/>
<path class="st12" d="M275,233c0,0-3.4-5.3-5-4.9c-1.6,0.3-2.1,9.2-1.2,8.7C269.6,236.3,275,233,275,233 M283.6,233
	c0,0,3.4-5.3,5-4.9c1.6,0.3,2.1,9.2,1.2,8.7C289,236.3,283.6,233,283.6,233"/>
<path class="st12" d="M291.2,238.5c0,5-5.3,9-11.8,9s-11.8-4-11.8-9s5.3-9,11.8-9S291.2,233.5,291.2,238.5"/>
<path class="st24" d="M287,235.9c0,0.4-0.3,0.8-0.8,0.8c-0.4,0-0.8-0.3-0.8-0.8c0-0.4,0.3-0.8,0.8-0.8
	C286.6,235.2,287,235.5,287,235.9 M283.4,237.6c0,0.2-0.1,0.3-0.3,0.3c-0.2,0-0.3-0.1-0.3-0.3s0.1-0.3,0.3-0.3
	C283.2,237.3,283.4,237.4,283.4,237.6 M283.4,238.6c0,0.2-0.1,0.3-0.3,0.3c-0.2,0-0.3-0.1-0.3-0.3s0.1-0.3,0.3-0.3
	S283.4,238.5,283.4,238.6 M284.2,238c0,0.2-0.1,0.3-0.3,0.3c-0.2,0-0.3-0.1-0.3-0.3s0.1-0.3,0.3-0.3S284.2,237.8,284.2,238
	 M275.8,237.8c0,0.2,0.1,0.3,0.3,0.3c0.2,0,0.3-0.1,0.3-0.3s-0.1-0.3-0.3-0.3C276,237.5,275.8,237.6,275.8,237.8 M275.8,238.9
	c0,0.2,0.1,0.3,0.3,0.3c0.2,0,0.3-0.1,0.3-0.3s-0.1-0.3-0.3-0.3C275.9,238.6,275.8,238.7,275.8,238.9 M275,238.2
	c0,0.2,0.1,0.3,0.3,0.3c0.2,0,0.3-0.1,0.3-0.3s-0.1-0.3-0.3-0.3C275.1,238,275,238.1,275,238.2 M273,236.1c0,0.4-0.3,0.8-0.8,0.8
	c-0.4,0-0.8-0.3-0.8-0.8c0-0.4,0.3-0.8,0.8-0.8S273,235.7,273,236.1 M278.4,239.6c-0.2,0.9,0,3,1.3,3s1.5-2,1.3-3
	c0-0.2-0.4-0.1-0.3,0.1c0.1,0.7,0.1,2.5-1,2.5s-1.1-1.8-1-2.5C278.8,239.5,278.5,239.4,278.4,239.6 M280.8,237.1
	c0-0.4-0.5-0.8-1.1-0.8s-1.1,0.3-1.1,0.8c0,0.4,0.4,0.7,0.9,0.7v1.4c0,0.2,0.4,0.2,0.4,0v-1.4C280.5,237.7,280.8,237.4,280.8,237.1"
	/>
<path class="st12" d="M229.9,230.4c1.9-1.4,3.9-2.8,5.8-4.1c0.3-0.2,0.6-0.4,0.8-0.6c0.4-0.3,0-0.8-0.3-0.6
	c-1.9,1.4-3.9,2.8-5.8,4.1c-0.3,0.2-0.6,0.4-0.8,0.6C229.2,230,229.6,230.6,229.9,230.4 M221.4,266.5c0.5-2.3,0.9-4.7,1.4-7
	c0.1-0.3,0.1-0.7,0.2-1c0.1-0.4-0.6-0.6-0.7-0.2c-0.5,2.3-0.9,4.7-1.4,7c-0.1,0.3-0.1,0.7-0.2,1C220.7,266.8,221.3,267,221.4,266.5
	 M248.4,207.9c1.9,1.5,3.8,3,5.6,4.4c0.3,0.2,0.5,0.4,0.8,0.6c0.3,0.3,0.8-0.2,0.5-0.5c-1.9-1.5-3.8-3-5.6-4.4
	c-0.3-0.2-0.5-0.4-0.8-0.6C248.5,207.1,248,207.6,248.4,207.9 M311.9,243.2c-0.2-2.4-0.3-4.8-0.5-7.1c0-0.3,0-0.7-0.1-1
	c0-0.4-0.7-0.4-0.7,0c0.2,2.4,0.3,4.8,0.5,7.1c0,0.3,0,0.7,0.1,1C311.2,243.7,311.9,243.7,311.9,243.2 M319.2,343.6
	c-1.7-1.6-3.5-3.3-5.2-4.9l-0.7-0.7c-0.3-0.3-0.8,0.2-0.5,0.5c1.7,1.6,3.5,3.3,5.2,4.9l0.7,0.7C319,344.4,319.5,343.9,319.2,343.6
	 M328.7,273.9c1-2.2,2-4.3,3-6.5c0.1-0.3,0.3-0.6,0.4-0.9c0.2-0.4-0.4-0.7-0.6-0.3c-1,2.2-2,4.3-3,6.5c-0.1,0.3-0.3,0.6-0.4,0.9
	C327.9,273.9,328.5,274.3,328.7,273.9 M323.2,294.8c2,1.3,4,2.7,5.9,4c0.3,0.2,0.6,0.4,0.8,0.6c0.4,0.2,0.7-0.3,0.3-0.6
	c-2-1.3-4-2.7-5.9-4c-0.3-0.2-0.6-0.4-0.8-0.6C323.2,293.9,322.9,294.5,323.2,294.8 M336.5,308.4c-0.5,2.3-0.9,4.7-1.4,7
	c-0.1,0.3-0.1,0.7-0.2,1c-0.1,0.4,0.6,0.6,0.7,0.2c0.5-2.3,0.9-4.7,1.4-7c0.1-0.3,0.1-0.7,0.2-1C337.3,308.2,336.6,308,336.5,308.4
	 M307.4,326.1c2.3-0.6,4.6-1.3,6.9-1.9c0.3-0.1,0.7-0.2,1-0.3c0.4-0.1,0.2-0.8-0.2-0.7c-2.3,0.6-4.6,1.3-6.9,1.9
	c-0.3,0.1-0.7,0.2-1,0.3C306.8,325.5,307,326.2,307.4,326.1 M207.5,242.8c1,2.2,2,4.3,3,6.5c0.1,0.3,0.3,0.6,0.4,0.9
	c0.2,0.4,0.8,0.1,0.6-0.3c-1-2.2-2-4.3-3-6.5c-0.1-0.3-0.3-0.6-0.4-0.9C207.9,242,207.4,242.4,207.5,242.8 M170.7,270.7
	c1.6,1.7,3.3,3.5,4.9,5.2l0.7,0.7c0.3,0.3,0.8-0.2,0.5-0.5c-1.6-1.7-3.3-3.5-4.9-5.2l-0.7-0.7C170.9,269.9,170.4,270.3,170.7,270.7
	 M174.9,297.8c1,2.1,2.1,4.3,3.1,6.4c0.1,0.3,0.3,0.6,0.4,0.9c0.2,0.4,0.8,0.1,0.6-0.3l-3.1-6.4c-0.2-0.3-0.3-0.6-0.4-0.9
	C175.3,297.1,174.7,297.4,174.9,297.8 M161.3,259.9l-4.8,5.4c-0.2,0.3-0.4,0.5-0.7,0.8s0.2,0.8,0.5,0.5l4.8-5.4
	c0.2-0.3,0.4-0.5,0.7-0.8C162.1,260,161.6,259.5,161.3,259.9 M174.1,243.3c0.8,2.3,1.5,4.5,2.3,6.8c0.1,0.3,0.2,0.6,0.3,1
	s0.8,0.2,0.7-0.2c-0.8-2.3-1.5-4.5-2.3-6.8c-0.1-0.3-0.2-0.6-0.3-1C174.6,242.7,173.9,242.9,174.1,243.3 M148.5,286.8
	c-1.1,2.1-2.3,4.2-3.4,6.3c-0.2,0.3-0.3,0.6-0.5,0.9c-0.2,0.4,0.4,0.7,0.6,0.3c1.1-2.1,2.3-4.2,3.4-6.3c0.2-0.3,0.3-0.6,0.5-0.9
	S148.7,286.5,148.5,286.8 M133.5,328.4c-1.1,2.1-2.3,4.2-3.4,6.3c-0.2,0.3-0.3,0.6-0.5,0.9c-0.2,0.4,0.4,0.7,0.6,0.3
	c1.1-2.1,2.3-4.2,3.4-6.3c0.2-0.3,0.3-0.6,0.5-0.9S133.7,328,133.5,328.4 M139.8,309.2c1.2,2.1,2.4,4.1,3.7,6.2
	c0.2,0.3,0.3,0.6,0.5,0.9c0.2,0.4,0.8,0,0.6-0.3c-1.2-2.1-2.4-4.1-3.7-6.2c-0.2-0.3-0.3-0.6-0.5-0.9
	C140.2,308.5,139.6,308.8,139.8,309.2 M165.8,282.5c-2.2,1-4.4,2-6.5,2.9c-0.3,0.1-0.6,0.3-0.9,0.4c-0.4,0.2-0.1,0.8,0.3,0.6
	c2.2-1,4.4-2,6.5-2.9c0.3-0.1,0.6-0.3,0.9-0.4C166.6,282.9,166.2,282.3,165.8,282.5 M159.9,331.2c-2.2,1-4.4,2-6.5,2.9
	c-0.3,0.1-0.6,0.3-0.9,0.4c-0.4,0.2-0.1,0.8,0.3,0.6c2.2-1,4.4-2,6.5-2.9c0.3-0.1,0.6-0.3,0.9-0.4
	C160.6,331.6,160.3,331,159.9,331.2 M179.9,338.7c-1.5-1.8-3.1-3.7-4.6-5.5c-0.2-0.3-0.4-0.5-0.6-0.8c-0.3-0.3-0.8,0.1-0.5,0.5
	c1.5,1.8,3.1,3.7,4.6,5.5c0.2,0.3,0.4,0.5,0.6,0.8C179.7,339.5,180.1,339,179.9,338.7 M172.1,317c-1.5-1.8-3.1-3.7-4.6-5.5
	c-0.2-0.3-0.4-0.5-0.6-0.8c-0.3-0.3-0.8,0.1-0.5,0.5c1.5,1.8,3.1,3.7,4.6,5.5c0.2,0.3,0.4,0.5,0.6,0.8
	C171.9,317.8,172.4,317.3,172.1,317 M196.1,220.8c-0.3,2.4-0.5,4.7-0.8,7.1c0,0.3-0.1,0.7-0.1,1c0,0.4,0.6,0.4,0.7,0
	c0.3-2.4,0.5-4.7,0.8-7.1c0-0.3,0.1-0.7,0.1-1C196.8,220.3,196.2,220.3,196.1,220.8 M216.4,210.9c1.2,2,2.5,4.1,3.7,6.1
	c0.2,0.3,0.4,0.6,0.5,0.9c0.2,0.4,0.8,0,0.6-0.3c-1.2-2-2.5-4.1-3.7-6.1c-0.2-0.3-0.4-0.6-0.5-0.9
	C216.8,210.2,216.2,210.5,216.4,210.9 M249.2,256.6l1,7.1c0,0.3,0.1,0.7,0.1,1c0.1,0.4,0.7,0.2,0.7-0.2l-1-7.1c0-0.3-0.1-0.7-0.1-1
	C249.8,256,249.1,256.2,249.2,256.6 M267.3,249.1c-1.4,1.9-2.9,3.8-4.3,5.7c-0.2,0.3-0.4,0.5-0.6,0.8c-0.3,0.3,0.3,0.7,0.6,0.3
	c1.4-1.9,2.9-3.8,4.3-5.7c0.2-0.3,0.4-0.5,0.6-0.8S267.5,248.8,267.3,249.1 M297.8,250.9c1,2.2,2,4.3,3.1,6.5
	c0.1,0.3,0.3,0.6,0.4,0.9c0.2,0.4,0.8,0.1,0.6-0.3c-1-2.2-2-4.3-3.1-6.5c-0.1-0.3-0.3-0.6-0.4-0.9
	C298.2,250.1,297.6,250.5,297.8,250.9"/>
<path class="st24" d="M236.9,250c0,0.9-0.6,1.8-1.4,2.1c-0.9,0.3-1.9,0-2.5-0.7s-0.6-1.7-0.2-2.5c0.5-0.8,1.4-1.2,2.3-1
	C236.2,248,236.9,249,236.9,250c0,0.4,0.7,0.4,0.7,0c0-1.2-0.8-2.3-1.9-2.7c-1.1-0.4-2.5-0.1-3.2,0.9c-0.8,0.9-0.9,2.3-0.3,3.3
	c0.6,1,1.8,1.6,3,1.4c1.4-0.2,2.3-1.5,2.3-2.8C237.6,249.6,236.9,249.6,236.9,250 M255.6,231.4c0,0.9-0.6,1.8-1.4,2.1
	c-0.9,0.3-1.9,0-2.5-0.7s-0.6-1.7-0.2-2.5c0.5-0.8,1.4-1.2,2.3-1C254.8,229.5,255.6,230.4,255.6,231.4c0,0.4,0.7,0.4,0.7,0
	c0-1.2-0.8-2.3-1.9-2.7c-1.1-0.4-2.5-0.1-3.2,0.9c-0.8,0.9-0.9,2.3-0.3,3.3c0.6,1,1.8,1.6,3,1.4c1.4-0.2,2.3-1.5,2.3-2.8
	C256.3,231,255.6,231,255.6,231.4 M300.4,227.3c0,0.9-0.6,1.8-1.4,2.1c-0.9,0.3-1.9,0-2.5-0.7s-0.6-1.7-0.2-2.5
	c0.5-0.8,1.4-1.2,2.3-1C299.6,225.4,300.4,226.3,300.4,227.3c0,0.4,0.7,0.4,0.7,0c0-1.2-0.8-2.3-1.9-2.7s-2.5-0.1-3.2,0.9
	c-0.8,0.9-0.9,2.3-0.3,3.3s1.8,1.6,3,1.4c1.4-0.2,2.3-1.5,2.3-2.8C301.1,226.9,300.4,226.9,300.4,227.3 M323.1,253.7
	c0,0.9-0.6,1.8-1.4,2.1c-0.9,0.3-1.9,0-2.5-0.7s-0.6-1.7-0.2-2.5c0.5-0.8,1.4-1.2,2.3-1C322.3,251.7,323,252.6,323.1,253.7
	c0,0.4,0.7,0.4,0.7,0c0-1.2-0.8-2.3-1.9-2.7s-2.5-0.1-3.2,0.9c-0.8,0.9-0.9,2.3-0.3,3.3s1.8,1.6,3,1.4c1.4-0.2,2.3-1.5,2.3-2.8
	C323.7,253.2,323.1,253.2,323.1,253.7 M322.3,285.4c0,0.9-0.6,1.8-1.4,2.1c-0.9,0.3-1.9,0-2.5-0.7s-0.6-1.7-0.2-2.5
	c0.5-0.8,1.4-1.2,2.3-1C321.6,283.4,322.3,284.3,322.3,285.4c0,0.4,0.7,0.4,0.7,0c0-1.2-0.8-2.3-1.9-2.7c-1.1-0.4-2.5-0.1-3.2,0.9
	c-0.8,0.9-0.9,2.3-0.3,3.3s1.8,1.6,3,1.4c1.4-0.2,2.3-1.5,2.3-2.8C323,285,322.3,285,322.3,285.4 M343.2,299.3
	c0,0.9-0.6,1.8-1.4,2.1c-0.9,0.3-1.9,0-2.5-0.7s-0.6-1.7-0.2-2.5c0.5-0.8,1.4-1.2,2.3-1C342.5,297.4,343.2,298.3,343.2,299.3
	c0,0.4,0.7,0.4,0.7,0c0-1.2-0.8-2.3-1.9-2.7c-1.1-0.4-2.5-0.1-3.2,0.9c-0.8,0.9-0.9,2.3-0.3,3.3s1.8,1.6,3,1.4
	c1.4-0.2,2.3-1.5,2.3-2.8C343.9,298.9,343.2,298.9,343.2,299.3 M320.6,314.1c0,0.9-0.6,1.8-1.4,2.1c-0.9,0.3-1.9,0-2.5-0.7
	s-0.6-1.7-0.2-2.5c0.5-0.8,1.4-1.2,2.3-1C319.9,312.1,320.6,313.1,320.6,314.1c0,0.4,0.7,0.4,0.7,0c0-1.2-0.8-2.3-1.9-2.7
	c-1.1-0.4-2.5-0.1-3.2,0.9c-0.8,0.9-0.9,2.3-0.3,3.3s1.8,1.6,3,1.4c1.4-0.2,2.3-1.5,2.3-2.8C321.3,313.7,320.7,313.7,320.6,314.1
	 M212.6,228.9c0,0.9-0.6,1.8-1.4,2.1c-0.9,0.3-1.9,0-2.5-0.7s-0.6-1.7-0.2-2.5c0.5-0.8,1.4-1.2,2.3-1
	C211.8,226.9,212.6,227.8,212.6,228.9c0,0.4,0.7,0.4,0.7,0c0-1.2-0.8-2.3-1.9-2.7c-1.1-0.4-2.5-0.1-3.2,0.9
	c-0.8,0.9-0.9,2.3-0.3,3.3c0.6,1,1.8,1.6,3,1.4c1.4-0.2,2.3-1.5,2.3-2.8C213.3,228.4,212.6,228.4,212.6,228.9 M186.5,238.3
	c0,0.9-0.6,1.8-1.4,2.1c-0.9,0.3-1.9,0-2.5-0.7s-0.6-1.7-0.2-2.5c0.5-0.8,1.4-1.2,2.3-1C185.8,236.4,186.5,237.3,186.5,238.3
	c0,0.4,0.7,0.4,0.7,0c0-1.2-0.8-2.3-1.9-2.7c-1.1-0.4-2.5-0.1-3.2,0.9c-0.8,0.9-0.9,2.3-0.3,3.3c0.6,1,1.8,1.6,3,1.4
	c1.4-0.2,2.3-1.5,2.3-2.8C187.2,237.9,186.5,237.9,186.5,238.3 M203.8,258.4c0,0.9-0.6,1.8-1.4,2.1c-0.9,0.3-1.9,0-2.5-0.7
	s-0.6-1.7-0.2-2.5c0.5-0.8,1.4-1.2,2.3-1C203,256.4,203.8,257.3,203.8,258.4c0,0.4,0.7,0.4,0.7,0c0-1.2-0.8-2.3-1.9-2.7
	c-1.1-0.4-2.5-0.1-3.2,0.9c-0.8,0.9-0.9,2.3-0.3,3.3c0.6,1,1.8,1.6,3,1.4c1.4-0.2,2.3-1.5,2.3-2.8
	C204.5,257.9,203.8,257.9,203.8,258.4 M185,262.2c0,0.9-0.6,1.8-1.4,2.1c-0.9,0.3-1.9,0-2.5-0.7s-0.6-1.7-0.2-2.5
	c0.5-0.8,1.4-1.2,2.3-1C184.3,260.2,185,261.1,185,262.2c0,0.4,0.7,0.4,0.7,0c0-1.2-0.8-2.3-1.9-2.7c-1.1-0.4-2.5-0.1-3.2,0.9
	c-0.8,0.9-0.9,2.3-0.3,3.3c0.6,1,1.8,1.6,3,1.4c1.4-0.2,2.3-1.5,2.3-2.8C185.7,261.8,185,261.8,185,262.2 M155.6,273.4
	c0,0.9-0.6,1.8-1.4,2.1c-0.9,0.3-1.9,0-2.5-0.7s-0.6-1.7-0.2-2.5c0.5-0.8,1.4-1.2,2.3-1C154.8,271.4,155.5,272.3,155.6,273.4
	c0,0.4,0.7,0.4,0.7,0c0-1.2-0.8-2.3-1.9-2.7c-1.1-0.4-2.5-0.1-3.2,0.9c-0.8,0.9-0.9,2.3-0.3,3.3c0.6,1,1.8,1.6,3,1.4
	c1.4-0.2,2.3-1.5,2.3-2.8C156.2,273,155.6,273,155.6,273.4 M137.9,298.8c0,0.9-0.6,1.8-1.4,2.1c-0.9,0.3-1.9,0-2.5-0.7
	s-0.6-1.7-0.2-2.5c0.5-0.8,1.4-1.2,2.3-1C137.1,296.8,137.9,297.7,137.9,298.8c0,0.4,0.7,0.4,0.7,0c0-1.2-0.8-2.3-1.9-2.7
	c-1.1-0.4-2.5-0.1-3.2,0.9c-0.8,0.9-0.9,2.3-0.3,3.3c0.6,1,1.8,1.6,3,1.4c1.4-0.2,2.3-1.5,2.3-2.8
	C138.6,298.3,137.9,298.3,137.9,298.8 M155.6,321.3c0,0.9-0.6,1.8-1.4,2.1c-0.9,0.3-1.9,0-2.5-0.7s-0.6-1.7-0.2-2.5
	c0.5-0.8,1.4-1.2,2.3-1C154.8,319.3,155.5,320.2,155.6,321.3c0,0.4,0.7,0.4,0.7,0c0-1.2-0.8-2.3-1.9-2.7c-1.1-0.4-2.5-0.1-3.2,0.9
	c-0.8,0.9-0.9,2.3-0.3,3.3c0.6,1,1.8,1.6,3,1.4c1.4-0.2,2.3-1.5,2.3-2.8C156.2,320.8,155.6,320.8,155.6,321.3 M181.8,324.7
	c0,0.9-0.6,1.8-1.4,2.1c-0.9,0.3-1.9,0-2.5-0.7s-0.6-1.7-0.2-2.5c0.5-0.8,1.4-1.2,2.3-1C181.1,322.7,181.8,323.6,181.8,324.7
	c0,0.4,0.7,0.4,0.7,0c0-1.2-0.8-2.3-1.9-2.7c-1.1-0.4-2.5-0.1-3.2,0.9c-0.8,0.9-0.9,2.3-0.3,3.3c0.6,1,1.8,1.6,3,1.4
	c1.4-0.2,2.3-1.5,2.3-2.8C182.5,324.2,181.8,324.2,181.8,324.7 M163.6,341.9c0,0.9-0.6,1.8-1.4,2.1c-0.9,0.3-1.9,0-2.5-0.7
	s-0.6-1.7-0.2-2.5c0.5-0.8,1.4-1.2,2.3-1C162.8,339.9,163.6,340.8,163.6,341.9c0,0.4,0.7,0.4,0.7,0c0-1.2-0.8-2.3-1.9-2.7
	c-1.1-0.4-2.5-0.1-3.2,0.9c-0.8,0.9-0.9,2.3-0.3,3.3c0.6,1,1.8,1.6,3,1.4c1.4-0.2,2.3-1.5,2.3-2.8
	C164.3,341.4,163.6,341.4,163.6,341.9 M143.9,337.7c0,0.9-0.6,1.8-1.4,2.1c-0.9,0.3-1.9,0-2.5-0.7s-0.6-1.7-0.2-2.5
	c0.5-0.8,1.4-1.2,2.3-1C143.2,335.7,143.9,336.7,143.9,337.7c0,0.4,0.7,0.4,0.7,0c0-1.2-0.8-2.3-1.9-2.7c-1.1-0.4-2.5-0.1-3.2,0.9
	c-0.8,0.9-0.9,2.3-0.3,3.3c0.6,1,1.8,1.6,3,1.4c1.4-0.2,2.3-1.5,2.3-2.8C144.6,337.3,143.9,337.3,143.9,337.7 M130.7,320.2
	c0,0.9-0.6,1.8-1.4,2.1c-0.9,0.3-1.9,0-2.5-0.7s-0.6-1.7-0.2-2.5c0.5-0.8,1.4-1.2,2.3-1C129.9,318.3,130.7,319.2,130.7,320.2
	c0,0.4,0.7,0.4,0.7,0c0-1.2-0.8-2.3-1.9-2.7c-1.1-0.4-2.5-0.1-3.2,0.9c-0.8,0.9-0.9,2.3-0.3,3.3s1.8,1.6,3,1.4
	c1.4-0.2,2.3-1.5,2.3-2.8C131.4,319.8,130.7,319.8,130.7,320.2 M161.1,299.3c0,0.9-0.6,1.8-1.4,2.1c-0.9,0.3-1.9,0-2.5-0.7
	s-0.6-1.7-0.2-2.5c0.5-0.8,1.4-1.2,2.3-1C160.3,297.4,161,298.3,161.1,299.3c0,0.4,0.7,0.4,0.7,0c0-1.2-0.8-2.3-1.9-2.7
	c-1.1-0.4-2.5-0.1-3.2,0.9c-0.8,0.9-0.9,2.3-0.3,3.3c0.6,1,1.8,1.6,3,1.4c1.4-0.2,2.3-1.5,2.3-2.8
	C161.7,298.9,161.1,298.9,161.1,299.3 M176.6,287c0,0.9-0.6,1.8-1.4,2.1c-0.9,0.3-1.9,0-2.5-0.7s-0.6-1.7-0.2-2.5
	c0.5-0.8,1.4-1.2,2.3-1C175.8,285,176.6,286,176.6,287c0,0.4,0.7,0.4,0.7,0c0-1.2-0.8-2.3-1.9-2.7c-1.1-0.4-2.5-0.1-3.2,0.9
	c-0.8,0.9-0.9,2.3-0.3,3.3c0.6,1,1.8,1.6,3,1.4c1.4-0.2,2.3-1.5,2.3-2.8C177.3,286.6,176.6,286.6,176.6,287 M291.4,264
	c-0.3,0.9-1,1.5-2,1.6c-0.9,0.1-1.8-0.5-2.2-1.3c-0.4-0.8-0.2-1.9,0.5-2.5s1.7-0.8,2.5-0.3C291.2,261.9,291.6,263,291.4,264
	c-0.1,0.4,0.5,0.6,0.7,0.2c0.3-1.2-0.1-2.4-1.1-3.1s-2.3-0.7-3.3-0.1c-1,0.7-1.5,1.9-1.2,3.1s1.3,2,2.5,2.1c1.4,0.1,2.6-0.8,3-2.1
	C292.1,263.7,291.5,263.5,291.4,264 M276.5,209.2c0,0.9-0.6,1.8-1.4,2.1c-0.9,0.3-1.9,0-2.5-0.7s-0.6-1.7-0.2-2.5
	c0.5-0.8,1.4-1.2,2.3-1C275.8,207.2,276.5,208.1,276.5,209.2c0,0.4,0.7,0.4,0.7,0c0-1.2-0.8-2.3-1.9-2.7s-2.5-0.1-3.2,0.9
	c-0.8,0.9-0.9,2.3-0.3,3.3s1.8,1.6,3,1.4c1.4-0.2,2.3-1.5,2.3-2.8C277.2,208.7,276.6,208.7,276.5,209.2 M230.1,203
	c0,0.9-0.6,1.8-1.4,2.1c-0.9,0.3-1.9,0-2.5-0.7s-0.6-1.7-0.2-2.5c0.5-0.8,1.4-1.2,2.3-1C229.3,201.1,230.1,202,230.1,203
	c0,0.4,0.7,0.4,0.7,0c0-1.2-0.8-2.3-1.9-2.7c-1.1-0.4-2.5-0.1-3.2,0.9c-0.8,0.9-0.9,2.3-0.3,3.3c0.6,1,1.8,1.6,3,1.4
	c1.4-0.2,2.3-1.5,2.3-2.8C230.8,202.6,230.1,202.6,230.1,203 M341.6,278.8c0.1,0,0.1,0,0.2-0.1c-0.1-0.2-0.2-0.4-0.2-0.6
	c-0.8,0.2-1.7-0.1-2.2-0.8c-0.6-0.7-0.6-1.7-0.2-2.5c0.2-0.3,0.5-0.6,0.8-0.8l-0.3-0.6c-0.3,0.2-0.6,0.4-0.8,0.7
	c-0.8,0.9-0.9,2.3-0.3,3.3S340.4,279,341.6,278.8"/>
<path class="st29" d="M369.8,344.3c0.4-1.8,0.6-3.6,0.6-5.4c0-14.7-12.2-26.6-27.3-26.6c-15.1,0-27.3,11.9-27.3,26.6
	c0,1.9,0.2,3.7,0.6,5.4H369.8L369.8,344.3z"/>
<g class="st22">
	<g>
		<defs>
			<rect id="SVGID_7_" x="315.9" y="312.2" width="54.5" height="32.1"/>
		</defs>
		<clipPath id="SVGID_8_">
			<use xlink:href="#SVGID_7_"  style="overflow:visible;"/>
		</clipPath>
		<path class="st32" d="M369.8,344.3c0.4-1.8,0.6-3.6,0.6-5.4c0-14.7-12.2-26.6-27.3-26.6c-15.1,0-27.3,11.9-27.3,26.6
			c0,1.9,0.2,3.7,0.6,5.4H369.8L369.8,344.3z"/>
	</g>
</g>
<path class="st31" d="M354.4,319.5c0.4,0,0.7,0.1,1,0.1c-0.9-2.9-3.9-5.2-6.8-6.9c-0.9-0.2-1.8-0.3-2.8-0.4
	C348.9,313.8,353.2,316.4,354.4,319.5 M349.6,319.5c-1.6-1.4-6.1-4.9-10.7-7c-0.6,0.1-1.1,0.2-1.6,0.3c4.3,1.6,8.9,5.1,11.1,6.9
	C348.7,319.6,349.1,319.6,349.6,319.5 M342,321.6c-3.4-3.2-7.7-5.4-10.8-6.7c-0.4,0.2-0.7,0.4-1.1,0.6c3.1,1.2,7.6,3.4,11.1,6.6
	C341.4,321.9,341.7,321.7,342,321.6 M338.5,323.9c-2-1.1-7.7-4.3-12.3-5.8c-0.3,0.2-0.6,0.5-0.8,0.7c4.4,1.4,10.2,4.5,12.4,5.8
	C338,324.3,338.2,324.1,338.5,323.9 M334.5,329c-4.5-2-10.5-3.8-14.1-4.7c-0.2,0.3-0.4,0.5-0.5,0.8c3.6,0.9,9.7,2.7,14.2,4.7
	C334.2,329.5,334.3,329.2,334.5,329 M332.3,334.6c-2.5-0.7-10.3-2.9-15.1-3.7l-0.3,0.9c4.8,0.8,12.7,3,15.2,3.7
	C332.1,335.2,332.2,334.9,332.3,334.6 M331.4,340.2c-4,0.3-11.2,0-15.5-0.2c0,0.3,0,0.6,0.1,0.9c2.9,0.1,7,0.3,10.7,0.3
	c1.8,0,3.4,0,4.8-0.1C331.4,340.8,331.4,340.5,331.4,340.2"/>
<path class="st24" d="M305.2,244.6c3.1,12.3,5,24.9,6.5,37.5c0.8,6.6,1.4,13.2,1.8,19.8c0,0.4,0.7,0.4,0.7,0
	c-1.1-18.1-3.5-36.2-7.4-53.9c-0.3-1.2-0.5-2.4-0.8-3.5C305.8,244,305.1,244.2,305.2,244.6 M189.7,244.4c-3,13-4.9,26.3-6.5,39.6
	c-0.8,6.8-1.4,13.5-1.8,20.3c0,0.4,0.7,0.4,0.7,0c1.1-18.8,3.7-37.5,7.4-56c0.3-1.3,0.5-2.5,0.8-3.7
	C190.4,244.2,189.8,244,189.7,244.4"/>
<path class="st24" d="M158.4,308c4.2-1,8.5-1.6,12.7-2.1c9.9-1.2,19.9-1.6,29.9-0.9c7,0.5,13.9,1.4,20.7,3.1
	c0.4,0.1,0.6-0.6,0.2-0.7c-19.3-4.6-39.8-4.4-59.3-0.9c-1.5,0.3-2.9,0.5-4.4,0.9C157.7,307.5,157.9,308.1,158.4,308"/>
<path class="st16" d="M22.5-40h455v455h-455V-40z"/>
<path class="st26" d="M435.2,233.8l-7.4,90 M431.5,233.8l-7.5,90 M433.3,234.8l-53.1-47.6 M435.2,231.5L382,183.9"/>
<path class="st33" d="M385.1,191.4c-1.9,3.6-6.1,5.1-9.4,3.3c-3.3-1.7-4.5-6-2.6-9.6s6.1-5.1,9.4-3.3S387,187.8,385.1,191.4"/>
<path class="st26" d="M373,221.3c-2.5,4.9-8.5,6.7-13.4,4.2s-6.7-8.5-4.2-13.4s8.5-6.7,13.4-4.2S375.6,216.4,373,221.3z"/>
<path class="st28" d="M378.6,189.3c-14.1-7.4-32.5-0.2-41.1,16.1l51.2,26.8C397.3,215.9,392.8,196.7,378.6,189.3 M449.9,344.3
	c-2.1-12.7-12.9-22.4-25.8-22.4s-23.7,9.7-25.8,22.4H449.9L449.9,344.3z"/>
<path class="st33" d="M437.2,232.4c0,2.6-2.1,4.7-4.7,4.7s-4.7-2.1-4.7-4.7s2.1-4.7,4.7-4.7S437.2,229.8,437.2,232.4"/>
<path class="st16" d="M22.5-40h455v455h-455V-40z"/>
<path class="st34" d="M344.9,201.5l-13.2,17l18.8,9.6l13.4-16.9L344.9,201.5z"/>
<path class="st17" d="M344.9,201.5l-13.2,17l18.8,9.6l13.4-16.9L344.9,201.5z"/>
<path class="st16" d="M345,205.6l13.8,7.1"/>
<path class="st17" d="M345,205.6l13.8,7.1"/>
<path class="st16" d="M342.5,207.8l13.9,7.1"/>
<path class="st17" d="M342.5,207.8l13.9,7.1"/>
<path class="st16" d="M340.6,210.3l13.8,7.1"/>
<path class="st17" d="M340.6,210.3l13.8,7.1"/>
<path class="st16" d="M338.6,212.7l13.9,7.1"/>
<path class="st17" d="M338.6,212.7l13.9,7.1"/>
<path class="st16" d="M336.3,215.5l13.9,7.1"/>
<path class="st17" d="M336.3,215.5l13.9,7.1"/>
<path class="st24" d="M37.5,345h407.7c5.5,0,11,0.1,16.5,0h0.7c0.9,0,0.9-1.4,0-1.4H54.7c-5.5,0-11-0.1-16.5,0h-0.7
	C36.7,343.6,36.6,345,37.5,345"/>
<path class="st16" d="M22.5-40h455v455h-455V-40z"/>
<path class="st16" d="M22.5-40h455v455h-455V-40z"/>
<path class="st24" d="M181.3,340.1l-7-72.5c-0.3-2.7,1.9-5.1,4.8-5.1h137.5c2.9,0,5.2,2.6,4.7,5.4l-11.6,72.5
	c-0.4,2.3-2.4,3.9-4.7,3.9H186C183.6,344.3,181.5,342.5,181.3,340.1"/>
<path class="st12" d="M256.2,303.4c0,4.5-3.8,8.2-8.4,8.2s-8.4-3.7-8.4-8.2s3.8-8.2,8.4-8.2S256.2,298.8,256.2,303.4"/>
<path class="st16" d="M22.5-40h455v455h-455V-40z"/>
<path class="st33" d="M381.8,350.7c-0.7-14.5-11.2-26.1-24-26.1s-23.2,11.5-24,26.1H381.8z"/>
<path class="st24" d="M382.1,350.7c-0.6-10.3-6.2-20.7-16.1-24.8c-9.6-3.9-20.1-0.3-26.3,7.7c-3.8,4.9-5.8,10.9-6.1,17
	c0,0.2,0.2,0.3,0.3,0.3h47.8c0.4,0,0.4-0.7,0-0.7h-47.8l0.3,0.3c0.6-10.1,6.1-20.2,15.7-24.2c9.3-3.8,19.6-0.1,25.6,7.7
	c3.6,4.7,5.5,10.5,5.9,16.5C381.5,351.1,382.2,351.2,382.1,350.7"/>
<path class="st24" d="M358.5,324.7v26.1c0,0.4,0.7,0.4,0.7,0v-26.1C359.1,324.2,358.5,324.2,358.5,324.7"/>
<path class="st16" d="M22.5-40h455v455h-455V-40z"/>
<path class="st12" d="M329.4,339.3c0,0-4.5-4.6-1.6-9.4s7.7-8.2,13.9-10.7s13.1-3.1,16.2-2.9c3.1,0.3,10.1,1.2,16.2,7.6
	c6,6.3,8,11.3,8.2,12.7c0.2,1.5,0.1,2.4-0.4,4.2c-0.6,1.8,0.1,1.6-0.7,1.5c0,0-0.5,0.8-1.1,1.1c-0.4,0.2-1.1-0.4-1.5-0.1
	s-0.5,1.1-0.6,1.4c0,0-1.1,2.2-5.2-0.4c-4.1-2.5-9.9-9.6-10.9-10.8c-1-1.2-4.4-5-5.9-4.4s-1.5,0-1.6,5.3s-0.2,8.7-0.7,10.7
	s-2.6,3.7-4.5,2.3c-2-1.4-2.8-7.4-3-8.5s-0.6-4.6-0.6-4.6s0-1.6-1.2-0.9c-0.6,0.3-2.1,0.4-3.2,1c-1.3,0.8-2.5,2.3-2.5,2.3
	s0.1,0,0.3,1.4c0.2,1.4,1.9,5.6,0.5,8.1c-1.5,2.5-3.6,0.2-4.8-1C333.3,343.9,329.4,339.3,329.4,339.3"/>
<path class="st24" d="M335.9,332.2c1.3,2.7,2.4,5.6,3.1,8.5c0.4,1.5,1.1,5.1-0.8,6.1c-1.2,0.6-2.7-1.1-3.5-1.9
	c-1.3-1.3-2.6-2.7-3.7-4.1c-1.3-1.6-2.6-3.3-3.3-5.2c-0.7-1.8-0.5-3.7,0.3-5.2c2.4-4.8,7.6-8.1,12.3-10.2c8.3-3.7,18.2-5.1,26.6-1
	c4,1.9,7.2,4.9,10,8.4c1.8,2.2,3.5,4.6,4.5,7.3c0.8,2.1,1.2,4.6-0.3,6.4c-0.3,0.3,0.2,0.8,0.5,0.5c2.8-3.4,0.3-8.2-1.7-11.3
	c-2.5-3.9-5.7-7.6-9.6-10.2c-8.2-5.5-18.4-5.2-27.4-1.9c-5.8,2.1-12.4,5.7-15.4,11.5c-0.8,1.5-1.1,3.3-0.6,5.2
	c0.6,2.1,1.9,3.9,3.2,5.5c1.3,1.7,2.8,3.3,4.3,4.8c0.9,0.9,2.2,2.3,3.6,2.2c1.9-0.2,2.2-2.8,2.2-4.3c-0.1-2.5-1-5-1.9-7.3
	c-0.5-1.4-1.1-2.7-1.7-4C336.3,331.5,335.7,331.8,335.9,332.2"/>
<path class="st24" d="M363.8,324.9c4.1,4.2,8.2,8.7,11.5,13.5c0.7,1,3.8,5.2,1.9,6.3c-1.7,1-3.8-0.2-5.2-1.3
	c-4.9-3.5-8.1-8.8-12.6-12.7c-1.1-0.9-3.9-3.3-5.1-1.2c-0.4,0.7-0.4,1.6-0.4,2.3c-0.1,2.2-0.1,4.4-0.2,6.6c-0.1,1.9,0,10-3.6,9.1
	c-1.5-0.4-2-1.7-2.5-3.1c-0.6-1.8-1-3.8-1.3-5.7c-0.6-3.5-1-7-1.2-10.5v-0.6c0-0.4-0.7-0.4-0.7,0c0.2,2.8,0.5,5.6,0.8,8.3
	c0.3,2.2,0.6,4.4,1.2,6.5c0.4,1.5,0.8,3.2,1.7,4.5c0.7,0.9,2.1,1.5,3.3,1.2c1.4-0.4,1.9-2,2.3-3.2c1.1-4.3,0.7-9,0.9-13.4
	c0-0.6,0-1.6,0.5-2c0.9-0.6,2.3,0.5,2.9,1c2.6,1.9,4.7,4.6,6.8,7c1.9,2.1,3.9,4.3,6.2,6c1.6,1.3,3.9,2.8,6,2
	c2.2-0.8,1.3-3.1,0.5-4.7c-1.7-3.4-4.3-6.4-6.8-9.3c-2-2.3-4-4.6-6.2-6.8c-0.1-0.1-0.2-0.2-0.3-0.4
	C364,324.1,363.5,324.6,363.8,324.9"/>
<path class="st24" d="M378.2,343.6c0.9,0.3,2.2,0.3,2.9-0.5c1.1-1.3,0.4-3.6-0.1-5c-0.9-2.4-2.4-4.6-3.9-6.7c-2-2.7-4.1-5.2-6.4-7.7
	c-0.3-0.3-0.8,0.2-0.5,0.5c3.6,3.8,7.2,7.9,9.5,12.7c0.7,1.4,1.6,3.5,1.2,5.1c-0.3,1.2-1.5,1.3-2.5,1
	C377.9,342.8,377.7,343.4,378.2,343.6 M338.6,337.3c0-0.2,0.1-0.3,0.3-0.6c0.4-0.6,1.1-1.1,1.7-1.6c1.4-0.9,3-1.6,4.7-1.6
	c0.4,0,0.4-0.7,0-0.7c-1.8,0-3.7,0.7-5.1,1.8c-0.7,0.5-1.3,1-1.8,1.7c-0.2,0.2-0.3,0.5-0.4,0.8C337.9,337.6,338.5,337.8,338.6,337.3
	"/>
<path class="st16" d="M22.5-40h455v455h-455V-40z"/>
<path class="st35" d="M79.9,329.1c-3.3,0.8-6.3,0.3-6.6-1l-7.8-34.2c-0.3-1.3,2.2-3,5.5-3.7c3.3-0.8,6.8-0.4,7.1,0.9l7.3,34.3
	C85.7,326.7,83.2,328.4,79.9,329.1"/>
<g class="st36">
	<g>
		<defs>
			<rect id="SVGID_9_" x="65.5" y="289.8" width="20" height="39.7"/>
		</defs>
		<clipPath id="SVGID_10_">
			<use xlink:href="#SVGID_9_"  style="overflow:visible;"/>
		</clipPath>
		<path class="st37" d="M79.9,329.1c-3.3,0.8-6.3,0.3-6.6-1l-7.8-34.2c-0.3-1.3,2.2-3,5.5-3.7c3.3-0.8,6.8-0.4,7.1,0.9l7.3,34.3
			C85.7,326.7,83.2,328.4,79.9,329.1"/>
	</g>
</g>
<path class="st24" d="M79.7,328.6c-1.3,0.3-5.3,1.1-5.9-0.7c-0.2-0.6-0.3-1.3-0.4-1.9c-0.7-2.9-1.3-5.9-2-8.8
	c-1.6-6.9-3.2-13.8-4.8-20.8c-0.2-0.8-0.4-1.5-0.5-2.3c-0.3-1.4,1.7-2.2,2.8-2.7c1.6-0.7,3.4-1,5.2-1.1c0.9,0,2.9-0.1,3.4,0.9
	c0.2,0.4,0.2,0.9,0.3,1.3c1.4,6.5,2.8,13,4.2,19.4l2.1,9.9c0.2,0.9,0.4,1.9,0.6,2.8c0.2,0.8,0.2,1.2-0.5,1.9
	C82.9,327.7,81.3,328.2,79.7,328.6c-0.7,0.2-0.4,1.3,0.3,1.1c1.8-0.4,5.9-1.6,5.9-4.1c0-0.5-0.2-1.1-0.3-1.6c-0.6-3-1.3-5.9-1.9-8.9
	c-1.6-7.4-3.2-14.8-4.7-22.2c-0.1-0.6-0.2-1.3-0.4-1.9c-0.6-1.9-3.5-1.8-5.1-1.7c-2.6,0.2-6.5,0.9-8.2,3.2c-0.5,0.7-0.5,1.4-0.3,2.2
	c1.5,6.7,3.1,13.5,4.6,20.2l2.4,10.5c0.2,0.9,0.4,1.7,0.6,2.6c0.3,1.3,1.4,1.8,2.6,2c1.6,0.3,3.2,0,4.7-0.3
	C80.8,329.5,80.5,328.4,79.7,328.6"/>
<path class="st27" d="M72.3,323.5l1.3,5.9c0.4,1.6,3.4,2.4,6.7,1.6c3.3-0.8,5.7-2.7,5.4-4.4l-1.3-5.9L72.3,323.5z"/>
<path class="st24" d="M71.7,323.7c0.3,1.5,0.7,2.9,1,4.4c0.1,0.5,0.2,1.1,0.4,1.6c0.3,1.1,1.4,1.7,2.4,1.9c2.9,0.8,6.5,0,8.9-1.8
	c0.8-0.6,1.7-1.4,1.8-2.5c0.1-0.6-0.1-1.1-0.2-1.7c-0.4-1.7-0.7-3.4-1.1-5.1c-0.1-0.3-0.4-0.5-0.7-0.4c-3.5,0.8-7.1,1.6-10.6,2.4
	l-1.5,0.3c-0.7,0.2-0.4,1.3,0.3,1.1c3.5-0.8,7.1-1.6,10.6-2.4l1.5-0.3c-0.2-0.1-0.5-0.3-0.7-0.4c0.3,1.3,0.6,2.6,0.8,3.8
	c0.1,0.6,0.3,1.3,0.4,1.9c0.1,0.7-0.2,1.2-0.7,1.7c-1.9,1.9-5.4,2.7-8,2.3c-0.9-0.1-2-0.5-2.3-1.4c-0.1-0.5-0.2-0.9-0.3-1.4
	c-0.3-1.5-0.7-3-1-4.5C72.6,322.6,71.5,322.9,71.7,323.7"/>
<path class="st33" d="M71,318.1l12.1-2.8l0.9,3.9L71.9,322L71,318.1z"/>
<path class="st24" d="M83.9,318.8l-10.6,2.4c-0.5,0.1-1,0.2-1.5,0.4l0.7,0.4l-0.9-3.9c-0.1,0.2-0.3,0.5-0.4,0.7
	c3.5-0.8,7.1-1.6,10.6-2.4l1.5-0.3c-0.2-0.1-0.5-0.3-0.7-0.4l0.9,3.9c0.2,0.7,1.3,0.4,1.1-0.3l-0.9-3.9c-0.1-0.3-0.4-0.5-0.7-0.4
	c-3.5,0.8-7.1,1.6-10.6,2.4l-1.5,0.3c-0.3,0.1-0.5,0.4-0.4,0.7l0.9,3.9c0.1,0.3,0.4,0.5,0.7,0.4c3.5-0.8,7.1-1.6,10.6-2.4
	c0.5-0.1,1-0.2,1.5-0.4C84.9,319.7,84.6,318.6,83.9,318.8"/>
<path class="st33" d="M71.9,322.1l12.1-2.8l0.9,3.8l-12.1,2.8L71.9,322.1z"/>
<path class="st24" d="M84.8,322.6c-3.5,0.8-7.1,1.6-10.6,2.4c-0.5,0.1-1,0.2-1.5,0.4l0.7,0.4c-0.3-1.3-0.6-2.5-0.9-3.8
	c-0.1,0.2-0.3,0.5-0.4,0.7c3.5-0.8,7.1-1.6,10.6-2.4l1.5-0.3c-0.2-0.1-0.5-0.3-0.7-0.4c0.3,1.3,0.6,2.5,0.9,3.8
	c0.2,0.7,1.3,0.4,1.1-0.3c-0.3-1.3-0.6-2.5-0.9-3.8c-0.1-0.3-0.4-0.5-0.7-0.4l-10.6,2.4l-1.5,0.3c-0.3,0.1-0.5,0.4-0.4,0.7
	c0.3,1.3,0.6,2.5,0.9,3.8c0.1,0.3,0.4,0.5,0.7,0.4c3.5-0.8,7.1-1.6,10.6-2.4c0.5-0.1,1-0.2,1.5-0.4
	C85.8,323.5,85.5,322.4,84.8,322.6"/>
<path class="st12" d="M65.7,293.2l3-13.3l8.8,10.6c0.2,0.3-0.3,0.7-1.2,0.9l-9.3,2C66.3,293.7,65.7,293.6,65.7,293.2"/>
<path class="st24" d="M66.3,293.4c0.9-3.9,1.8-7.7,2.6-11.6c0.1-0.6,0.3-1.1,0.4-1.7c-0.3,0.1-0.6,0.2-1,0.3c2.2,2.7,4.4,5.4,6.6,8
	c0.5,0.6,1.1,1.3,1.6,1.9c0.1,0.2,0.3,0.4,0.4,0.5l0.1,0.1c-0.1,0-0.1-0.3-0.2-0.3s-0.3,0.1-0.4,0.2c-0.5,0.2-1.1,0.3-1.6,0.4
	c-1,0.2-2.1,0.4-3.1,0.7c-1.2,0.3-2.3,0.5-3.5,0.8c-0.4,0.1-0.7,0.2-1.1,0.2c-0.1,0-0.2,0-0.2,0.1c-0.1,0-0.3,0-0.4,0.1
	C66.2,293.1,66.3,293,66.3,293.4c-0.1-0.8-1.2-0.8-1.2-0.1c0,1.8,4.3,0.4,5.2,0.2c2-0.4,4-0.9,6-1.3c0.8-0.2,2.3-0.8,1.6-1.9
	c-0.3-0.4-0.6-0.8-0.9-1.1l-4.5-5.4c-1.1-1.4-2.2-2.7-3.4-4.1c-0.3-0.3-0.9-0.1-1,0.3c-0.9,3.9-1.8,7.7-2.6,11.6
	c-0.1,0.6-0.3,1.1-0.4,1.7C65,293.8,66.1,294.1,66.3,293.4"/>
<path class="st24" d="M67.7,286.9l5.7-1.3l-4.6-5.6L67.7,286.9z"/>
<path class="st35" d="M90.2,322.5c-3.4-0.7-5.9-2.3-5.6-3.6l6.9-34.4c0.3-1.3,3.2-1.8,6.6-1.2c3.4,0.7,6.4,2.4,6.1,3.7l-7.4,34.3
	C96.5,322.6,93.6,323.2,90.2,322.5"/>
<g class="st38">
	<g>
		<defs>
			<rect id="SVGID_11_" x="84.6" y="283" width="19.6" height="39.8"/>
		</defs>
		<clipPath id="SVGID_12_">
			<use xlink:href="#SVGID_11_"  style="overflow:visible;"/>
		</clipPath>
		<path class="st39" d="M90.2,322.5c-3.4-0.7-5.9-2.3-5.6-3.6l6.9-34.4c0.3-1.3,3.2-1.8,6.6-1.2c3.4,0.7,6.4,2.4,6.1,3.7l-7.4,34.3
			C96.5,322.6,93.6,323.2,90.2,322.5"/>
	</g>
</g>
<path class="st24" d="M90.4,321.9c-1.5-0.3-3.2-0.8-4.5-1.8c-0.4-0.3-0.7-0.7-0.7-1.2c0-0.6,0.3-1.3,0.4-1.8l1.8-8.7l4.2-20.9
	c0.2-0.8,0.3-1.6,0.5-2.4c0.3-1.4,1.9-1.4,3.1-1.4c1.8,0,3.6,0.3,5.3,1c0.9,0.3,3.1,1.1,3.2,2.3c0,0.4-0.2,0.9-0.3,1.3
	c-1.4,6.5-2.8,12.9-4.2,19.4l-2.1,9.9c-0.2,1-0.4,1.9-0.6,2.9c-0.2,0.8-0.2,1.2-1.1,1.5C93.8,322.5,91.9,322.2,90.4,321.9
	c-0.7-0.1-1,1-0.3,1.1c1.8,0.3,6.2,1,7.2-1.3c0.2-0.5,0.2-1,0.4-1.5c0.7-3,1.3-6,2-9c1.6-7.4,3.2-14.7,4.8-22.1
	c0.1-0.6,0.3-1.2,0.4-1.8c0.3-2-2.3-3.1-3.8-3.7c-1.7-0.7-3.4-1-5.2-1.1c-1.3,0-2.8,0-3.9,0.7c-0.7,0.5-0.8,1.1-1,1.8
	c-1.4,6.9-2.8,13.7-4.1,20.6c-0.7,3.4-1.4,6.9-2.1,10.3c-0.2,0.8-0.3,1.7-0.5,2.5c-0.2,1.3,0.5,2.2,1.5,2.9c1.3,0.9,2.9,1.4,4.4,1.7
	C90.8,323.2,91.1,322.1,90.4,321.9"/>
<path class="st33" d="M85.8,312.9l0.8-3.9l12.2,2.4l-0.8,3.9L85.8,312.9z"/>
<path class="st24" d="M98.2,314.7c-3.5-0.7-7.1-1.4-10.6-2.1l-1.5-0.3c0.1,0.2,0.3,0.5,0.4,0.7c0.3-1.3,0.5-2.6,0.8-4
	c-0.2,0.1-0.5,0.3-0.7,0.4c3.5,0.7,7.1,1.4,10.7,2.1l1.5,0.3c-0.1-0.2-0.3-0.5-0.4-0.7c-0.3,1.3-0.5,2.6-0.8,4c-0.1,0.7,1,1,1.1,0.3
	c0.3-1.3,0.5-2.6,0.8-4c0.1-0.3-0.1-0.6-0.4-0.7c-3.5-0.7-7.1-1.4-10.7-2.1l-1.5-0.3c-0.3-0.1-0.6,0.1-0.7,0.4
	c-0.3,1.3-0.5,2.6-0.8,4c-0.1,0.3,0.1,0.6,0.4,0.7c3.5,0.7,7.1,1.4,10.7,2.1l1.5,0.3C98.6,316,98.9,314.9,98.2,314.7"/>
<path class="st12" d="M92,284l8.2-10.8l3.6,13.3c0.1,0.4-0.6,0.5-1.4,0.3l-9.3-2C92.4,284.7,91.8,284.2,92,284"/>
<path class="st24" d="M92.5,284.3c2.4-3.2,4.8-6.3,7.2-9.5c0.3-0.4,0.7-0.9,1-1.3l-1-0.1c0.9,3.4,1.8,6.7,2.7,10.1
	c0.2,0.8,0.4,1.6,0.7,2.4c0.1,0.2,0.1,0.5,0.2,0.7v0.1v-0.2c0.1-0.2,0-0.2-0.1-0.2h-0.5c-1.6-0.2-3.1-0.6-4.7-1
	c-1.2-0.2-2.3-0.5-3.5-0.7c-0.4-0.1-0.7-0.1-1.1-0.2h-0.2c-0.1,0-0.2,0-0.2-0.1c-0.1,0-0.2-0.1-0.3-0.1c-0.1,0-0.1-0.1-0.2-0.1
	C92.4,283.9,92.4,284,92.5,284.3c0.3-0.7-0.7-1.2-1-0.6c-0.8,1.7,3.6,2.1,4.5,2.3c2,0.4,4,0.9,6.1,1.3c0.8,0.2,2.5,0.3,2.3-1
	c-0.1-0.5-0.3-1-0.4-1.4c-0.6-2.3-1.2-4.5-1.9-6.8c-0.5-1.7-0.9-3.4-1.4-5.1c-0.1-0.5-0.8-0.5-1-0.1c-2.4,3.2-4.8,6.3-7.2,9.5
	c-0.3,0.4-0.7,0.9-1,1.3C91.1,284.3,92.1,284.8,92.5,284.3"/>
<path class="st24" d="M96.4,279l5.7,1.1l-1.9-7L96.4,279z"/>
<path class="st27" d="M85.5,314.2l-1.2,5.9c-0.3,1.7,2.1,3.5,5.5,4.2s6.3-0.1,6.7-1.8l1.3-5.9L85.5,314.2L85.5,314.2z"/>
<path class="st24" d="M85,314.1l-0.9,4.4c-0.1,0.5-0.2,1-0.3,1.6c-0.2,1.1,0.5,2,1.3,2.7c2.2,2,5.8,2.7,8.7,2.2
	c1.1-0.2,2.3-0.6,3-1.5c0.3-0.5,0.4-1.1,0.5-1.6c0.4-1.7,0.7-3.4,1.1-5.1c0.1-0.3-0.1-0.6-0.4-0.7c-3.6-0.7-7.1-1.4-10.7-2.1
	l-1.5-0.3c-0.7-0.1-1,1-0.3,1.1c3.6,0.7,7.1,1.4,10.7,2.1l1.5,0.3c-0.1-0.2-0.3-0.5-0.4-0.7c-0.3,1.3-0.5,2.6-0.8,3.8
	c-0.1,0.6-0.3,1.3-0.4,1.9c-0.2,0.7-0.7,1.1-1.4,1.4c-2.6,0.9-6,0.2-8.2-1.3c-0.7-0.5-1.5-1.2-1.4-2.1c0.1-0.5,0.2-0.9,0.3-1.4
	l0.9-4.5C86.2,313.7,85.1,313.4,85,314.1"/>
<path class="st33" d="M85,316.6l0.8-3.8l12.2,2.4l-0.8,3.8L85,316.6z"/>
<path class="st24" d="M97.4,318.5c-3.5-0.7-7.1-1.4-10.7-2.1l-1.5-0.3c0.1,0.2,0.3,0.5,0.4,0.7c0.3-1.3,0.5-2.6,0.8-3.8l-0.7,0.4
	c3.5,0.7,7.1,1.4,10.6,2.1l1.5,0.3c-0.1-0.2-0.3-0.5-0.4-0.7c-0.3,1.3-0.5,2.6-0.8,3.8c-0.1,0.7,1,1,1.1,0.3
	c0.3-1.3,0.5-2.6,0.8-3.8c0.1-0.3-0.1-0.6-0.4-0.7c-3.5-0.7-7.1-1.4-10.6-2.1l-1.5-0.3c-0.3-0.1-0.6,0.1-0.7,0.4
	c-0.3,1.3-0.5,2.6-0.8,3.8c-0.1,0.3,0.1,0.6,0.4,0.7c3.6,0.7,7.1,1.4,10.7,2.1l1.5,0.3C97.8,319.8,98.1,318.7,97.4,318.5"/>
<path class="st33" d="M82.1,327.5c-2.2,0-4-1.8-4-4V264c0-2.2,1.8-4,4-4s4,1.8,4,4v59.5C86.1,325.7,84.3,327.5,82.1,327.5"/>
<path class="st26" d="M82.1,327.5c-2.2,0-4-1.8-4-4V264c0-2.2,1.8-4,4-4s4,1.8,4,4v59.5C86.1,325.7,84.3,327.5,82.1,327.5z
	 M78.1,276.6h8"/>
<path class="st33" d="M86.6,290c-1.2,0-2.1-0.9-2.1-2.1v-17.8c0-1.2,0.9-2.1,2.1-2.1s2.1,0.9,2.1,2.1v17.8
	C88.8,289.1,87.8,290,86.6,290"/>
<path class="st26" d="M86.6,290c-1.2,0-2.1-0.9-2.1-2.1v-17.8c0-1.2,0.9-2.1,2.1-2.1s2.1,0.9,2.1,2.1v17.8
	C88.8,289.1,87.8,290,86.6,290z"/>
<path class="st2" d="M63.3,309.1h43.5v44.3H63.3V309.1z"/>
<path class="st28" d="M106.8,332.2v-1.6c-4.1-3.7-9.9-10.7-10.4-21.4h-0.9C96.1,321,102.5,328.5,106.8,332.2 M102.2,353.4
	c0.4-9.1-1.2-16.7-4.3-20.3c-1.8-2-5-3.7-9.8,0.2c-4,3.3-7.1,10-8.8,19.5c0,0.2-0.1,0.4-0.1,0.6h0.9c1.2-7,3.6-15,8.3-18.8
	c3.5-2.8,6.5-2.9,8.9-0.3c2.9,3.3,4.3,10.5,3.9,19.1L102.2,353.4L102.2,353.4z M67.5,353.4c0.5-6.6,4-12.7,10.4-21.6
	c5.5-7.7,9.2-15.3,10.9-22.7h-0.9c-1.7,7-5.2,14.2-10.5,21.6c-6.5,9.1-10.2,15.6-10.7,22.7C66.7,353.4,67.5,353.4,67.5,353.4z
	 M63.3,325.5c2.9-0.1,6.9-1.1,9.6-5.3c1.7-2.7,2.6-6.4,2.7-11h-0.9c-0.1,4.2-0.9,7.6-2.4,10c-2.4,3.9-6.2,4.8-9,4.9
	C63.3,324.1,63.3,325.5,63.3,325.5z"/>
<path class="st26" d="M63.3,309.1h43.5v44.3H63.3V309.1z"/>
<path class="st16" d="M22.5-40h455v455h-455V-40z"/>
<path class="st16" d="M22.5-40h455v455h-455V-40z"/>
</svg>
